<svg xmlns="http://www.w3.org/2000/svg" id="レイヤー_1" viewBox="0 0 768 1024">
  <style>
    .st0{fill:#e9c261}.st1{fill:#eeeeef}.st2{fill:#5b9eb7}.st3{fill:#f3a692}.st4{fill:#4dae81}.st5{fill:#ccb8a0}.st6,.st7{fill-rule:evenodd;clip-rule:evenodd;fill:#5b9eb7}.st7{fill:#4dae81}.st8{fill:#f3a692}.st8,.st9{fill-rule:evenodd;clip-rule:evenodd}.st10,.st9{fill:#fff}.st11,.st12,.st13{fill-rule:evenodd;clip-rule:evenodd;fill:#e9c261}.st12,.st13{fill:#ccb8a0}.st13{fill:#eeeeef}.st14{fill:#4b4b4b}
  </style>
  <path d="M-82.63 0h46.55v46.55h-46.55z" class="st0"/>
  <path d="M-36.08 0h46.55v46.55h-46.55z" class="st1"/>
  <path d="M-82.63 46.55h46.55V93.1h-46.55z" class="st2"/>
  <path d="M-36.08 46.55h46.55V93.1h-46.55z" class="st3"/>
  <path d="M-82.63 93.09h46.55v46.55h-46.55z" class="st4"/>
  <path d="M-36.08 93.09h46.55v46.55h-46.55zM-82.63 139.64h46.55v46.55h-46.55z" class="st1"/>
  <path d="M-36.08 139.64h46.55v46.55h-46.55zM10.46 0h46.55v46.55H10.46z" class="st0"/>
  <path d="M57.01 0h46.55v46.55H57.01z" class="st5"/>
  <path d="M10.46 46.55h46.55V93.1H10.46z" class="st2"/>
  <path d="M57.01 46.55h46.55V93.1H57.01z" class="st1"/>
  <path d="M10.46 93.09h46.55v46.55H10.46z" class="st5"/>
  <path d="M57.01 93.09h46.55v46.55H57.01z" class="st4"/>
  <path d="M10.46 139.64h46.55v46.55H10.46z" class="st1"/>
  <path d="M57.01 139.64h46.55v46.55H57.01zM103.55 0h46.55v46.55h-46.55z" class="st2"/>
  <path d="M150.1 0h46.55v46.55H150.1z" class="st1"/>
  <path d="M103.55 46.55h46.55V93.1h-46.55z" class="st0"/>
  <path d="M150.1 46.55h46.55V93.1H150.1z" class="st4"/>
  <path d="M103.55 93.09h46.55v46.55h-46.55z" class="st1"/>
  <path d="M150.1 93.09h46.55v46.55H150.1z" class="st2"/>
  <path d="M103.55 139.64h46.55v46.55h-46.55z" class="st5"/>
  <path d="M150.1 139.64h46.55v46.55H150.1z" class="st0"/>
  <path d="M196.65 0h46.55v46.55h-46.55z" class="st2"/>
  <path d="M243.19 0h46.55v46.55h-46.55z" class="st3"/>
  <path d="M196.65 46.55h46.55V93.1h-46.55z" class="st5"/>
  <path d="M243.19 46.55h46.55V93.1h-46.55z" class="st1"/>
  <path d="M196.65 93.09h46.55v46.55h-46.55z" class="st1"/>
  <path d="M243.19 93.09h46.55v46.55h-46.55z" class="st0"/>
  <path d="M196.65 139.64h46.55v46.55h-46.55z" class="st2"/>
  <path d="M243.19 139.64h46.55v46.55h-46.55z" class="st3"/>
  <path d="M-82.63 186.18h46.55v46.55h-46.55z" class="st2"/>
  <path d="M-36.08 186.18h46.55v46.55h-46.55z" class="st1"/>
  <path d="M-82.63 232.73h46.55v46.55h-46.55z" class="st0"/>
  <path d="M-36.08 232.73h46.55v46.55h-46.55z" class="st4"/>
  <path d="M-82.63 279.27h46.55v46.55h-46.55z" class="st1"/>
  <path d="M-36.08 279.27h46.55v46.55h-46.55z" class="st3"/>
  <path d="M-82.63 325.82h46.55v46.55h-46.55z" class="st5"/>
  <path d="M-36.08 325.82h46.55v46.55h-46.55z" class="st0"/>
  <path d="M10.46 186.18h46.55v46.55H10.46z" class="st2"/>
  <path d="M57.01 186.18h46.55v46.55H57.01z" class="st3"/>
  <path d="M10.46 232.73h46.55v46.55H10.46z" class="st5"/>
  <path d="M57.01 232.73h46.55v46.55H57.01zM10.46 279.27h46.55v46.55H10.46z" class="st1"/>
  <path d="M57.01 279.27h46.55v46.55H57.01z" class="st0"/>
  <path d="M10.46 325.82h46.55v46.55H10.46z" class="st4"/>
  <path d="M57.01 325.82h46.55v46.55H57.01z" class="st3"/>
  <path d="M103.55 186.18h46.55v46.55h-46.55z" class="st0"/>
  <path d="M150.1 186.18h46.55v46.55H150.1z" class="st1"/>
  <path d="M103.55 232.73h46.55v46.55h-46.55z" class="st2"/>
  <path d="M150.1 232.73h46.55v46.55H150.1z" class="st3"/>
  <path d="M103.55 279.27h46.55v46.55h-46.55z" class="st4"/>
  <path d="M150.1 279.27h46.55v46.55H150.1zM103.55 325.82h46.55v46.55h-46.55z" class="st1"/>
  <path d="M150.1 325.82h46.55v46.55H150.1zM196.65 186.18h46.55v46.55h-46.55z" class="st0"/>
  <path d="M243.19 186.18h46.55v46.55h-46.55z" class="st5"/>
  <path d="M196.65 232.73h46.55v46.55h-46.55z" class="st2"/>
  <path d="M243.19 232.73h46.55v46.55h-46.55z" class="st1"/>
  <path d="M196.65 279.27h46.55v46.55h-46.55z" class="st5"/>
  <path d="M243.19 279.27h46.55v46.55h-46.55z" class="st4"/>
  <path d="M196.65 325.82h46.55v46.55h-46.55z" class="st1"/>
  <path d="M243.19 325.82h46.55v46.55h-46.55z" class="st2"/>
  <g>
    <path d="M289.74 0h46.55v46.55h-46.55z" class="st0"/>
    <path d="M336.28 0h46.55v46.55h-46.55z" class="st1"/>
    <path d="M289.74 46.55h46.55V93.1h-46.55z" class="st2"/>
    <path d="M336.28 46.55h46.55V93.1h-46.55z" class="st3"/>
    <path d="M289.74 93.09h46.55v46.55h-46.55z" class="st4"/>
    <path d="M336.28 93.09h46.55v46.55h-46.55zM289.74 139.64h46.55v46.55h-46.55z" class="st1"/>
    <path d="M336.28 139.64h46.55v46.55h-46.55zM382.83 0h46.55v46.55h-46.55z" class="st0"/>
    <path d="M429.37 0h46.55v46.55h-46.55z" class="st5"/>
    <path d="M382.83 46.55h46.55V93.1h-46.55z" class="st2"/>
    <path d="M429.37 46.55h46.55V93.1h-46.55z" class="st1"/>
    <path d="M382.83 93.09h46.55v46.55h-46.55z" class="st5"/>
    <path d="M429.37 93.09h46.55v46.55h-46.55z" class="st4"/>
    <path d="M382.83 139.64h46.55v46.55h-46.55z" class="st1"/>
    <path d="M429.37 139.64h46.55v46.55h-46.55zM475.92 0h46.55v46.55h-46.55z" class="st2"/>
    <path d="M522.46 0h46.55v46.55h-46.55z" class="st1"/>
    <path d="M475.92 46.55h46.55V93.1h-46.55z" class="st0"/>
    <path d="M522.46 46.55h46.55V93.1h-46.55z" class="st4"/>
    <path d="M475.92 93.09h46.55v46.55h-46.55z" class="st1"/>
    <path d="M522.46 93.09h46.55v46.55h-46.55z" class="st2"/>
    <path d="M475.92 139.64h46.55v46.55h-46.55z" class="st5"/>
    <path d="M522.46 139.64h46.55v46.55h-46.55z" class="st0"/>
    <path d="M569.01 0h46.55v46.55h-46.55z" class="st2"/>
    <path d="M615.55 0h46.55v46.55h-46.55z" class="st3"/>
    <path d="M569.01 46.55h46.55V93.1h-46.55z" class="st5"/>
    <path d="M615.55 46.55h46.55V93.1h-46.55z" class="st1"/>
    <path d="M569.01 93.09h46.55v46.55h-46.55z" class="st1"/>
    <path d="M615.55 93.09h46.55v46.55h-46.55z" class="st0"/>
    <path d="M569.01 139.64h46.55v46.55h-46.55z" class="st2"/>
    <path d="M615.55 139.64h46.55v46.55h-46.55z" class="st3"/>
    <path d="M289.74 186.18h46.55v46.55h-46.55z" class="st2"/>
    <path d="M336.28 186.18h46.55v46.55h-46.55z" class="st1"/>
    <path d="M289.74 232.73h46.55v46.55h-46.55z" class="st0"/>
    <path d="M336.28 232.73h46.55v46.55h-46.55z" class="st4"/>
    <path d="M289.74 279.27h46.55v46.55h-46.55z" class="st1"/>
    <path d="M336.28 279.27h46.55v46.55h-46.55z" class="st3"/>
    <path d="M289.74 325.82h46.55v46.55h-46.55z" class="st5"/>
    <path d="M336.28 325.82h46.55v46.55h-46.55z" class="st0"/>
    <path d="M382.83 186.18h46.55v46.55h-46.55z" class="st2"/>
    <path d="M429.37 186.18h46.55v46.55h-46.55z" class="st3"/>
    <path d="M382.83 232.73h46.55v46.55h-46.55z" class="st5"/>
    <path d="M429.37 232.73h46.55v46.55h-46.55z" class="st1"/>
    <path d="M382.83 279.27h46.55v46.55h-46.55z" class="st1"/>
    <path d="M429.37 279.27h46.55v46.55h-46.55z" class="st0"/>
    <path d="M382.83 325.82h46.55v46.55h-46.55z" class="st4"/>
    <path d="M429.37 325.82h46.55v46.55h-46.55z" class="st3"/>
    <path d="M475.92 186.18h46.55v46.55h-46.55z" class="st0"/>
    <path d="M522.46 186.18h46.55v46.55h-46.55z" class="st1"/>
    <path d="M475.92 232.73h46.55v46.55h-46.55z" class="st2"/>
    <path d="M522.46 232.73h46.55v46.55h-46.55z" class="st3"/>
    <path d="M475.92 279.27h46.55v46.55h-46.55z" class="st4"/>
    <path d="M522.46 279.27h46.55v46.55h-46.55zM475.92 325.82h46.55v46.55h-46.55z" class="st1"/>
    <path d="M522.46 325.82h46.55v46.55h-46.55zM569.01 186.18h46.55v46.55h-46.55z" class="st0"/>
    <path d="M615.55 186.18h46.55v46.55h-46.55z" class="st5"/>
    <path d="M569.01 232.73h46.55v46.55h-46.55z" class="st2"/>
    <path d="M615.55 232.73h46.55v46.55h-46.55z" class="st1"/>
    <path d="M569.01 279.27h46.55v46.55h-46.55z" class="st5"/>
    <path d="M615.55 279.27h46.55v46.55h-46.55z" class="st4"/>
    <path d="M569.01 325.82h46.55v46.55h-46.55z" class="st1"/>
    <path d="M615.55 325.82h46.55v46.55h-46.55z" class="st2"/>
  </g>
  <g>
    <path d="M662.1 0h46.55v46.55H662.1z" class="st0"/>
    <path d="M708.65 0h46.55v46.55h-46.55z" class="st1"/>
    <path d="M662.1 46.55h46.55V93.1H662.1z" class="st2"/>
    <path d="M708.65 46.55h46.55V93.1h-46.55z" class="st3"/>
    <path d="M662.1 93.09h46.55v46.55H662.1z" class="st4"/>
    <path d="M708.65 93.09h46.55v46.55h-46.55zM662.1 139.64h46.55v46.55H662.1z" class="st1"/>
    <path d="M708.65 139.64h46.55v46.55h-46.55zM755.19 0h46.55v46.55h-46.55z" class="st0"/>
    <path d="M801.74 0h46.55v46.55h-46.55z" class="st5"/>
    <path d="M755.19 46.55h46.55V93.1h-46.55z" class="st2"/>
    <path d="M801.74 46.55h46.55V93.1h-46.55z" class="st1"/>
    <path d="M755.19 93.09h46.55v46.55h-46.55z" class="st5"/>
    <path d="M801.74 93.09h46.55v46.55h-46.55z" class="st4"/>
    <path d="M755.19 139.64h46.55v46.55h-46.55z" class="st1"/>
    <path d="M801.74 139.64h46.55v46.55h-46.55zM662.1 186.18h46.55v46.55H662.1z" class="st2"/>
    <path d="M708.65 186.18h46.55v46.55h-46.55z" class="st1"/>
    <path d="M662.1 232.73h46.55v46.55H662.1z" class="st0"/>
    <path d="M708.65 232.73h46.55v46.55h-46.55z" class="st4"/>
    <path d="M662.1 279.27h46.55v46.55H662.1z" class="st1"/>
    <path d="M708.65 279.27h46.55v46.55h-46.55z" class="st3"/>
    <path d="M662.1 325.82h46.55v46.55H662.1z" class="st5"/>
    <path d="M708.65 325.82h46.55v46.55h-46.55z" class="st0"/>
    <path d="M755.19 186.18h46.55v46.55h-46.55z" class="st2"/>
    <path d="M801.74 186.18h46.55v46.55h-46.55z" class="st3"/>
    <path d="M755.19 232.73h46.55v46.55h-46.55z" class="st5"/>
    <path d="M801.74 232.73h46.55v46.55h-46.55zM755.19 279.27h46.55v46.55h-46.55z" class="st1"/>
    <path d="M801.74 279.27h46.55v46.55h-46.55z" class="st0"/>
    <path d="M755.19 325.82h46.55v46.55h-46.55z" class="st4"/>
    <path d="M801.74 325.82h46.55v46.55h-46.55z" class="st3"/>
  </g>
  <g>
    <path d="M-82.63 372.36h46.55v46.55h-46.55z" class="st0"/>
    <path d="M-36.08 372.36h46.55v46.55h-46.55z" class="st1"/>
    <path d="M-82.63 418.91h46.55v46.55h-46.55z" class="st2"/>
    <path d="M-36.08 418.91h46.55v46.55h-46.55z" class="st3"/>
    <path d="M-82.63 465.45h46.55V512h-46.55z" class="st4"/>
    <path d="M-36.08 465.45h46.55V512h-46.55z" class="st1"/>
    <path d="M10.46 372.36h46.55v46.55H10.46z" class="st0"/>
    <path d="M57.01 372.36h46.55v46.55H57.01z" class="st5"/>
    <path d="M10.46 418.91h46.55v46.55H10.46z" class="st2"/>
    <path d="M57.01 418.91h46.55v46.55H57.01z" class="st1"/>
    <path d="M10.46 465.45h46.55V512H10.46z" class="st5"/>
    <path d="M57.01 465.45h46.55V512H57.01z" class="st4"/>
    <path d="M103.55 372.36h46.55v46.55h-46.55z" class="st2"/>
    <path d="M150.1 372.36h46.55v46.55H150.1z" class="st1"/>
    <path d="M103.55 418.91h46.55v46.55h-46.55z" class="st0"/>
    <path d="M150.1 418.91h46.55v46.55H150.1z" class="st4"/>
    <path d="M103.55 465.45h46.55V512h-46.55z" class="st1"/>
    <path d="M150.1 465.45h46.55V512H150.1zM196.65 372.36h46.55v46.55h-46.55z" class="st2"/>
    <path d="M243.19 372.36h46.55v46.55h-46.55z" class="st3"/>
    <path d="M196.65 418.91h46.55v46.55h-46.55z" class="st5"/>
    <path d="M243.19 418.91h46.55v46.55h-46.55z" class="st1"/>
    <path d="M196.65 465.45h46.55V512h-46.55z" class="st1"/>
    <path d="M243.19 465.45h46.55V512h-46.55z" class="st0"/>
  </g>
  <g>
    <path d="M289.74 372.36h46.55v46.55h-46.55z" class="st0"/>
    <path d="M336.28 372.36h46.55v46.55h-46.55z" class="st1"/>
    <path d="M289.74 418.91h46.55v46.55h-46.55z" class="st2"/>
    <path d="M336.28 418.91h46.55v46.55h-46.55z" class="st3"/>
    <path d="M289.74 465.45h46.55V512h-46.55z" class="st4"/>
    <path d="M336.28 465.45h46.55V512h-46.55z" class="st1"/>
    <path d="M382.83 372.36h46.55v46.55h-46.55z" class="st0"/>
    <path d="M429.37 372.36h46.55v46.55h-46.55z" class="st5"/>
    <path d="M382.83 418.91h46.55v46.55h-46.55z" class="st2"/>
    <path d="M429.37 418.91h46.55v46.55h-46.55z" class="st1"/>
    <path d="M382.83 465.45h46.55V512h-46.55z" class="st5"/>
    <path d="M429.37 465.45h46.55V512h-46.55z" class="st4"/>
    <path d="M475.92 372.36h46.55v46.55h-46.55z" class="st2"/>
    <path d="M522.46 372.36h46.55v46.55h-46.55z" class="st1"/>
    <path d="M475.92 418.91h46.55v46.55h-46.55z" class="st0"/>
    <path d="M522.46 418.91h46.55v46.55h-46.55z" class="st4"/>
    <path d="M475.92 465.45h46.55V512h-46.55z" class="st1"/>
    <path d="M522.46 465.45h46.55V512h-46.55zM569.01 372.36h46.55v46.55h-46.55z" class="st2"/>
    <path d="M615.55 372.36h46.55v46.55h-46.55z" class="st3"/>
    <path d="M569.01 418.91h46.55v46.55h-46.55z" class="st5"/>
    <path d="M615.55 418.91h46.55v46.55h-46.55z" class="st1"/>
    <path d="M569.01 465.45h46.55V512h-46.55z" class="st1"/>
    <path d="M615.55 465.45h46.55V512h-46.55z" class="st0"/>
  </g>
  <g>
    <path d="M662.1 372.36h46.55v46.55H662.1z" class="st0"/>
    <path d="M708.65 372.36h46.55v46.55h-46.55z" class="st1"/>
    <path d="M662.1 418.91h46.55v46.55H662.1z" class="st2"/>
    <path d="M708.65 418.91h46.55v46.55h-46.55z" class="st3"/>
    <path d="M662.1 465.45h46.55V512H662.1z" class="st4"/>
    <path d="M708.65 465.45h46.55V512h-46.55z" class="st1"/>
    <path d="M755.19 372.36h46.55v46.55h-46.55z" class="st0"/>
    <path d="M801.74 372.36h46.55v46.55h-46.55z" class="st5"/>
    <path d="M755.19 418.91h46.55v46.55h-46.55z" class="st2"/>
    <path d="M801.74 418.91h46.55v46.55h-46.55z" class="st1"/>
    <path d="M755.19 465.45h46.55V512h-46.55z" class="st5"/>
    <path d="M801.74 465.45h46.55V512h-46.55z" class="st4"/>
  </g>
  <path d="M-15.39 11.91h12.28v2.59H-5.7v20.69h-2.59v-20.7h-2.59v20.69h-2.59v-9.05h-1.94c-3.88 0-7.11-3.23-7.11-7.11s3.25-7.11 7.13-7.11zm0 11.63h1.94v-9.05h-1.94c-2.46 0-4.53 2.07-4.53 4.53s2.07 4.52 4.53 4.52z" class="st6"/>
  <path d="M219.92 58.67c-6.43 0-11.64 5.21-11.64 11.64 0 6.43 5.21 11.64 11.64 11.64 6.43 0 11.64-5.21 11.64-11.64s-5.21-11.64-11.64-11.64zm0 23.27c0-6.43-5.21-11.64-11.64-11.64 6.43 0 11.64-5.21 11.64-11.64 0 6.43 5.21 11.64 11.64 11.64-6.43.01-11.64 5.22-11.64 11.64z" class="st1"/>
  <g>
    <path d="M725.83 153.28l-2.14.77-.77 2.14 2.85-.06zM728.39 156.55h-2.2v2.2l1.64-.56zM721.25 160.23l-.97 2.05.97 2.05 1.98-2.05zM726.14 162.28l-.77-1.55-1.55 1.55 1.55 1.55zM726.84 161.55l1.11-.93-.13-1.44-1.54.75zM726.83 162.99l-.56 1.62 1.54.74.13-1.43zM729.57 167.92l1.62-.56-.93-1.11-1.44.13zM734.25 167.93l.74-1.54-1.43-.13-.93 1.11zM737 163.01l-1.11.92.13 1.44 1.54-.74zM737.01 161.57l.56-1.62-1.54-.75-.13 1.44zM734.27 156.64l-1.62.56.92 1.11 1.44-.13zM729.59 156.63l-.75 1.54 1.44.13.93-1.11zM724.86 157.2l-2.57 1.06 1.07 2.58 1.64-1.45zM724.98 165.12l-1.64-1.45-1.07 2.58 2.57 1.06zM729.03 169.2l-2.19.13 1.06 2.58 2.58-1.07zM734.76 169.21l-1.45 1.65 2.58 1.07 1.06-2.58zM738.97 167.36l2.58-1.06-1.07-2.58-1.64 1.45zM738.86 159.43l1.64 1.45 1.07-2.57-2.58-1.07zM734.81 155.36l2.19-.14-1.06-2.57-2.58 1.07zM729.07 155.34l1.45-1.64-2.57-1.07-1.07 2.57zM722.92 168.37l.77 2.14 2.14.76-.06-2.84zM726.19 168.01l2.2-.01-.56-1.63-1.64-.56zM729.87 172.95l2.05.96 2.05-.96-2.05-1.98zM731.92 168.06l-1.55.76 1.55 1.56 1.55-1.56zM738.01 171.27l2.14-.76.76-2.14-2.84.06zM737.64 165.81l-1.63.56-.56 1.63 2.2.01zM742.59 164.33l.96-2.05-.96-2.05-1.98 2.05zM737.7 162.28l.76 1.55 1.56-1.55-1.56-1.55zM738.01 153.28l.06 2.85 2.84.06-.76-2.14zM737.65 156.55h-2.2l.56 1.64 1.63.56zM733.97 151.61l-2.05-.97-2.05.97 2.05 1.98zM731.92 156.5l1.55-.77-1.55-1.55-1.55 1.55z" class="st1"/>
  </g>
  <path d="M85.57 435.71H74.99c-3.5 0-6.35 2.85-6.35 6.35 0 3.5 2.85 6.35 6.35 6.35h10.58c3.5 0 6.35-2.85 6.35-6.35 0-3.51-2.85-6.35-6.35-6.35zm0 10.58H74.99c-2.34 0-4.23-1.89-4.23-4.23s1.89-4.23 4.23-4.23h10.58c2.34 0 4.23 1.89 4.23 4.23s-1.89 4.23-4.23 4.23zm-13.75-4.23c0-1.76 1.42-3.17 3.17-3.17 1.76 0 3.17 1.42 3.17 3.17a3.171 3.171 0 0 1-6.34 0z" class="st7"/>
  <path d="M685.37 291.63c-6.4 0-11.64 5.24-11.64 11.64s5.24 11.64 11.64 11.64 11.64-5.24 11.64-11.64-5.24-11.64-11.64-11.64zm1.17 6.99h-2.33v3.49h-3.49v2.33h3.49v3.49h2.33v-3.49h3.49v-2.33h-3.49v-3.49zm-10.48 4.65c0 5.12 4.19 9.31 9.31 9.31s9.31-4.19 9.31-9.31-4.19-9.31-9.31-9.31-9.31 4.19-9.31 9.31z" class="st8"/>
  <path d="M-50.17 244.97h-18.37c-1.35 0-2.45 1.1-2.45 2.45v17.15c0 1.35 1.1 2.45 2.45 2.45h18.37c1.35 0 2.45-1.1 2.45-2.45v-17.15c0-1.35-1.1-2.45-2.45-2.45zm0 2.45v3.67h-18.37v-3.67h18.37zm-12.25 17.15h6.12v-11.02h-6.12v11.02zm-6.12-11.03h3.67v11.02h-3.67v-11.02zm14.7 0v11.02h3.67v-11.02h-3.67z" class="st9"/>
  <path d="M769.78 480.13v3.72h6.83v14.89h3.72v-14.89h6.83v-3.72h-17.38z" class="st10"/>
  <g>
    <path d="M359.55 484.35l-3.27-3.27-8.36 8.36 8.36 8.36 3.27-3.28-5.08-5.08z" class="st2"/>
    <path d="M356.22 485.95h6.97v6.97h-6.97z" class="st2" transform="rotate(-45.001 359.705 489.444)"/>
    <path d="M362.83 481.08l-3.28 3.27.16.16 3.12-3.12 8.05 8.05-8.05 8.05-3.12-3.12-.16.15 3.28 3.28 8.36-8.36z" class="st2"/>
  </g>
  <g>
    <path d="M88.31 163.37c.88-.05 1.9-.79 2.09-1.39.05.6.09.93.09 1.07.84.05 1.24-.37 1.43-.51 0 0-.18 1.62-3.61 1.58v-.75zM84.73 169.17c.65.56 1.3.79 2.41.56-.05.42-.79.62-.93.62-.32.05-.19.42.05.46.23.05.51.4 1.44.31.51.28-.46.32-.46.32s-1.63.56-3.34-1.72c.04-.13.83-.55.83-.55zM84.68 161c1.3 4.09-2.26 6.43-3.51 6.11 1.9.98 3.84-1.23 4.25-2.02.42-.79.75-3.72-.74-4.09z" class="st1"/>
    <path d="M89.23 154.83c-2.28-2.28-4.83-2.14-7.57-1.39-1.58.42-2.2 1.44-3.56 1.51s-2.66-.07-3.73.07c-1.07.14-3.67 1.3-4.55 3.71-.19.51-.99.95-1.18 1.13 1.25.46 1.37.4 1.92.82.56.42 1.99 2.07 2.03 3.04.05.98.24 9.54 5.35 10.1-.09-2.51 1.62-3.58 3.34-3.99 1.72-.42 6.18-1.07 6.59-6.83 0-1.49-1.07-3.2-.98-4.78.12-1.58 2.34-3.39 2.34-3.39zm-15.77 4.04c-.46 0-.84-.37-.84-.84s.37-.84.84-.84c.46 0 .84.37.84.84s-.38.84-.84.84zm11.97 6.22c-.42.79-2.35 3-4.25 2.02 1.25.32 4.81-2.02 3.51-6.11 1.48.37 1.15 3.3.74 4.09z" class="st1"/>
  </g>
  <path d="M820.64 77.77h-6.78l2.59-4.97h-3.08v-9.95h10.34v9l-3.07 5.92zm6.15 0h6.77l3.08-5.92v-9H826.3v9.95h3.08l-2.59 4.97zm5.18-2.49h-.98l2.59-4.97h-4.68v-4.97h5.17v5.92l-2.1 4.02zm-12.93 0h-.98l2.59-4.97h-4.68v-4.97h5.17v5.92l-2.1 4.02z" class="st11"/>
  <path d="M634.33 438.17c0 1.97-1.6 3.57-3.57 3.57-1.97 0-3.57-1.6-3.57-3.57 0-1.97 1.6-3.57 3.57-3.57 1.97 0 3.57 1.6 3.57 3.57zm-2.91-.66h-1.32v1.32h1.32v-1.32zm10.98.66c0 1.97-1.6 3.57-3.57 3.57-1.97 0-3.57-1.6-3.57-3.57 0-1.97 1.6-3.57 3.57-3.57 1.97 0 3.57 1.6 3.57 3.57zm-2.91-.66h-1.32v1.32h1.32v-1.32zm10.97.66c0 1.97-1.6 3.57-3.57 3.57-1.97 0-3.57-1.6-3.57-3.57 0-1.97 1.6-3.57 3.57-3.57 1.98 0 3.57 1.6 3.57 3.57m-2.9-.66h-1.32v1.32h1.32v-1.32zm-13.23 8.43c0 1.97-1.6 3.57-3.57 3.57-1.97 0-3.57-1.6-3.57-3.57s1.6-3.57 3.57-3.57c1.97.01 3.57 1.6 3.57 3.57zm-2.91-.66h-1.32v1.32h1.32v-1.32zm10.98.66c0 1.97-1.6 3.57-3.57 3.57-1.97 0-3.57-1.6-3.57-3.57s1.6-3.57 3.57-3.57c1.97.01 3.57 1.6 3.57 3.57zm-2.91-.66h-1.32v1.32h1.32v-1.32zm10.97.66c0 1.97-1.6 3.57-3.57 3.57-1.97 0-3.57-1.6-3.57-3.57s1.6-3.57 3.57-3.57c1.98.01 3.57 1.6 3.57 3.57m-2.9-.66h-1.32v1.32h1.32v-1.32z" class="st4"/>
  <path d="M546.65 107.36h-7.72c-.51 0-1.63.3-1.63 1.78 0 1.47 1.1 1.63 1.42 1.63h2.59c.47 0 1.22.36 1.22 1.37 0 1.02-.73 1.42-1.07 1.42h-6.05c-.32 0-1.32.36-1.32 1.68 0 1.32.97 1.73 1.42 1.73h5.18s1.27.1 1.27 1.32-.93 1.42-1.22 1.42h-1.47c-.22 0-1.37.41-1.37 1.63s1.1 1.73 1.42 1.73h7.37-1.73 7.37c.32 0 1.42-.51 1.42-1.73s-1.15-1.63-1.37-1.63h-1.47c-.28 0-1.22-.2-1.22-1.42s1.27-1.32 1.27-1.32h4.98c.46 0 1.42-.41 1.42-1.73s-1-1.68-1.32-1.68h-5.84c-.34 0-1.07-.41-1.07-1.42 0-1.02.75-1.37 1.22-1.37h1.98c.32 0 1.42-.15 1.42-1.63 0-1.47-1.12-1.78-1.63-1.78h-7.11 1.64z" class="st1"/>
  <g>
    <path d="M-12.8 387.11l-5.58 3.91 5.58 3.92 5.56-3.94zM-12.8 395.64l-5.58 3.91 5.58 3.92 5.56-3.94zM-6.73 391.37l-5.58 3.92 5.58 3.91 5.56-3.94zM-18.86 391.37l-5.59 3.92 5.59 3.91 5.56-3.94z" class="st3"/>
  </g>
  <path d="M638.83 11.91c-6.43 0-11.64 5.21-11.64 11.64 0 6.43 5.21 11.64 11.64 11.64 6.43 0 11.64-5.21 11.64-11.64-.01-6.43-5.22-11.64-11.64-11.64zm0 2.2c3.15 0 5.93 1.54 7.65 3.91h-15.29a9.406 9.406 0 0 1 7.64-3.91zm-9.15 7.12h18.29c.19.74.29 1.51.29 2.31 0 .73-.09 1.45-.24 2.13v-.03h-18.38c-.15-.68-.24-1.38-.24-2.1 0-.79.1-1.57.28-2.31zm9.15 11.74a9.45 9.45 0 0 1-7.8-4.12h15.59a9.394 9.394 0 0 1-7.79 4.12z" class="st1"/>
  <g>
    <path d="M256.76 205.95h2.52v2.31h-2.52zM272.27 205.95h-10.56c0 .7-.02 1.48-.04 2.31h10.61v-2.31z" class="st1"/>
    <path d="M261.4 203.59h-2.56c0 .57 0 1.26-.03 2.05h.79v2.94h-.95c-.26 3.04-.89 6.82-2.36 10.81h3.43c1.79-4.99 1.69-12.7 1.68-15.8zM276.17 208.26v-2.31h-1.84c.02.69.06 1.47.13 2.31h1.71z" class="st1"/>
    <path d="M276.54 219.38c-2.47-6.69-2.55-12.8-2.55-15.79h-2.56c0 .55-.01 1.25 0 2.05h1.17v2.94h-1.11c.12 3.47.5 7.68 1.63 10.81h3.42zM257 202.64h18.68v.63H257zM275.54 202.4c1.82 0 2.56-1.92 2.56-3.74-.41.36-1.49.83-2.28.83h-18.7c-.8 0-1.87-.47-2.28-.83 0 1.82.74 3.74 2.56 3.74h18.14zM265.17 203.5h2.53v2.23h-2.53z" class="st1"/>
  </g>
  <g>
    <path d="M-21.97 493.93a1.24 1.24 0 1 1-1.24-1.24c.69 0 1.24.55 1.24 1.24z" class="st2"/>
    <circle cx="-19.57" cy="491.5" r="1.02" class="st2"/>
    <path d="M-5.01 489.4c0 .57-.46 1.03-1.03 1.03-.57 0-1.03-.46-1.03-1.03 0-.57.46-1.03 1.03-1.03.57 0 1.03.46 1.03 1.03z" class="st2"/>
    <circle cx="-8.22" cy="485.19" r="1.25" class="st2"/>
    <path d="M-1.17 488.9c0 .55-.44.99-.99.99s-.99-.44-.99-.99.44-.99.99-.99c.54-.01.99.44.99.99zM-3.18 495.01c-1.14.34-2.34.53-3.59.53-1.7 0-3.32-.34-4.8-.96a8.56 8.56 0 0 1-3.97.96c-1.54 0-2.99-.4-4.24-1.11.56.1 1.14.16 1.73.16 2.47 0 4.72-.94 6.41-2.49.36-.31.59-.77.59-1.29a1.699 1.699 0 0 0-2.89-1.21c-.3.3-.5.73-.74.96-.56.56-1.45.56-2.01 0s-.56-1.45 0-2.01c.48-.48 1.31-.59 1.72-1 .28-.27.45-.64.45-1.05 0-.8-.65-1.46-1.46-1.46-.41 0-.78.17-1.04.44-.39.39-.75 1.43-1.24 1.92-.71.71-1.85.71-2.56 0s-.71-1.85 0-2.56c.79-.79 2.54-1.51 3.82-1.51 2.66 0 3.84 1.73 5.57 4.63 2.16 3.6 4.91 5.91 8.25 7.05z" class="st2"/>
  </g>
  <g>
    <path d="M126.55 31.22v.16s.03.29.28.28c.25-.01.28-.29.28-.29v-1.16l-.56 1.01zm-.59-.5l-.17.32s-.12.27.11.38c.23.11.38-.11.38-.11l.65-1.18-.97.59zm1.35-.73v1.15l.1.17s.17.24.38.11c.22-.14.1-.39.1-.39l-.58-1.04zm1.15.32l-.92-.56-.11.07.45.8.29.18s.26.13.39-.09c.12-.23-.1-.4-.1-.4zM138.23 22.33l-13.04 7.97s-.24.18-.09.39c.14.21.39.09.39.09l12.98-7.92c-.01-.01-.08-.2-.24-.53zm-11.39 7.51c-.12 0-.22-.1-.22-.22s.1-.22.22-.22.22.1.22.22-.1.22-.22.22zM125.65 28.58l-3.55-2.17c-.12.14-.24.29-.35.44l4.35 2.66.05-.03-.5-.9zM126.35 28.28l-1.99-3.54c-.17.07-.34.16-.5.25l2.47 4.39.03-.02-.01-1.08zM127.11 24.23c-.09 0-.19-.01-.28-.01-.09 0-.19 0-.28.01v5l.56-1v-4M126.9 29.02l.97-.59 1.93-3.45c-.16-.09-.33-.17-.5-.25l-2.4 4.29z" class="st1"/>
    <path d="M126.83 15.43c-8.75 0-11.64 7.43-11.64 7.43l6.35 3.87a6.46 6.46 0 0 1 10.1-.6l6.46-3.94a12.754 12.754 0 0 0-11.27-6.76zm0 8.02a3.74 3.74 0 1 1 3.74-3.74c0 2.06-1.68 3.74-3.74 3.74z" class="st1"/>
  </g>
  <g>
    <path d="M500.69 209.02c0 .83-.67 1.5-1.5 1.5s-1.5-.67-1.5-1.5.67-1.5 1.5-1.5 1.5.67 1.5 1.5z" class="st1"/>
    <path d="M499.19 204.64c.13 0 .23.1.23.23v2.19c.46.05.87.27 1.18.58l2.65-2.02c.2-.16.37-.36.51-.59.56-.99.22-2.24-.76-2.81-.5-.29-1.08-.34-1.6-.19-.03-1.19-1-2.15-2.2-2.15s-2.18.96-2.2 2.15c-.52-.15-1.09-.1-1.6.19-.99.56-1.33 1.82-.76 2.81.13.24.31.44.51.59l2.65 2.02c.31-.31.72-.53 1.18-.58v-2.19c-.02-.12.08-.23.21-.23zM493.95 209.02c0-.13.1-.23.23-.23h3.06c.03-.28.12-.54.26-.77l-3.36-2.56a2.6 2.6 0 0 0-4.09 1.88h-.81c-.93 0-1.68.75-1.68 1.68 0 .93.75 1.68 1.68 1.68h.81a2.607 2.607 0 0 0 2.59 2.36c.56 0 1.08-.18 1.5-.48l3.36-2.56c-.14-.23-.23-.49-.26-.77h-3.06c-.13 0-.23-.11-.23-.23zM499.19 213.39c-.13 0-.23-.1-.23-.23v-2.19a1.98 1.98 0 0 1-1.18-.58l-2.65 2.02c-.2.16-.37.36-.51.59-.56.99-.22 2.24.76 2.81.5.29 1.08.34 1.6.19.03 1.19 1 2.15 2.2 2.15s2.18-.96 2.2-2.15c.52.15 1.09.1 1.6-.19.99-.56 1.33-1.82.76-2.81-.13-.24-.31-.44-.51-.59l-2.65-2.02c-.31.31-.72.53-1.18.58v2.19c.02.12-.08.23-.21.23zM504.43 209.02c0 .13-.1.23-.23.23h-3.06c-.03.28-.12.54-.26.77l3.36 2.56a2.6 2.6 0 0 0 4.09-1.88h.81c.93 0 1.68-.75 1.68-1.68 0-.93-.75-1.68-1.68-1.68h-.81a2.607 2.607 0 0 0-2.59-2.36c-.56 0-1.08.18-1.5.48l-3.36 2.56c.14.23.23.49.26.77h3.06c.13-.01.23.1.23.23z" class="st1"/>
  </g>
  <g>
    <path d="M540.2 486.22l5.3-3.68-2.79-1.61-2.78-1.6-.53 6.42-5.3 3.68 2.78 1.6 2.79 1.61zM552.08 485.75l-.54-6.42-2.78 1.6-2.78 1.61 5.29 3.68.54 6.42 2.78-1.61 2.78-1.6zM545.74 495.87l-5.83-2.75v6.43l5.83-2.75 5.83 2.75v-6.43z" class="st1"/>
  </g>
  <path d="M219.92 483.65c.58-.99 1.38-1.71 2.36-2.24.85-.46 1.76-.71 2.71-.82.9-.11 1.74.12 2.56.46 2.01.82 3.19 2.34 3.69 4.43.15.62.27 1.25.3 1.9.06 1.37-.17 2.69-.69 3.96-.62 1.51-1.59 2.77-2.81 3.85-.78.7-1.63 1.3-2.55 1.8-.74.41-1.54.67-2.36.89-1.16.31-2.34.5-3.54.45-1.8-.07-3.54-.48-5.15-1.29-1.09-.55-2.06-1.28-2.95-2.12-1.22-1.15-2.15-2.48-2.7-4.07-.54-1.57-.67-3.18-.33-4.81.17-.81.38-1.6.79-2.33.81-1.46 2.05-2.38 3.63-2.87.46-.14.94-.26 1.42-.26.35 0 .7.05 1.05.11 1.21.21 2.31.67 3.26 1.46.5.41.92.89 1.25 1.45.02-.01.04.01.06.05zm0 1.73c-.24.22-.41.47-.56.74-.35.66-.44 1.37-.37 2.11.03.33.07.66.22.96.11.22.26.38.5.45.38.11.76-.08.94-.49.13-.29.17-.61.2-.93.06-.68-.01-1.33-.3-1.95-.15-.33-.35-.63-.63-.89zm-.83-.59c-.04 0-.08-.02-.13-.01-.36.02-.73 0-1.08.06-.93.14-1.72.56-2.32 1.29a.807.807 0 0 0 .42 1.29c.63.16 1.14-.09 1.41-.68.38-.82.87-1.52 1.7-1.95zm1.62 0c.15.08.26.14.36.21.65.43 1.06 1.05 1.38 1.74.24.52.63.77 1.2.71.18-.02.4-.06.54-.17.34-.27.37-.84.08-1.16-.21-.23-.44-.45-.69-.63-.73-.52-1.56-.71-2.44-.71-.14-.02-.27 0-.43.01z" class="st3"/>
  <path d="M40.13 256.51l5.24 3.1-11.52 6.82-11.75-6.95 5.23-3.09-3.58-2.12 5.4-3.19-2.41-1.42 6.93-4.1 7.06 4.18-2.43 1.44 5.42 3.21z" class="st1"/>
  <g>
    <path d="M679.54 501.07l-3.28-2.13-2.22-21.14 5.51 3.55 5.5-3.55-2.22 21.14zM691.2 501.07l-3.29-2.13-2.21-21.14 5.5 3.55 5.51-3.55-2.22 21.14z" class="st1"/>
  </g>
  <g>
    <path d="M545.74 23.54c-6.43 0-11.64 5.21-11.64 11.64h4.19c0-4.11 3.34-7.45 7.45-7.45s7.45 3.34 7.45 7.45h4.19c-.01-6.43-5.22-11.64-11.64-11.64zM545.74 23.54c6.43 0 11.64-5.21 11.64-11.64h-4.19c0 4.11-3.34 7.45-7.45 7.45s-7.45-3.34-7.45-7.45h-4.19c0 6.43 5.21 11.64 11.64 11.64z" class="st0"/>
  </g>
  <path d="M118.38 342.4h16.9v1.78h-16.9v-1.78zm16.01 3.56h-15.12c-.49 0-.89.4-.89.89v5.34c0 .49.4.89.89.89h15.12c.49 0 .89-.4.89-.89v-5.34c0-.49-.4-.89-.89-.89zm-.89 5.34v-3.56h-13.34v3.56h13.34zm-15.12 3.55h16.9v1.78h-16.9v-1.78z" class="st12"/>
  <path d="M825.01 351.52v-13.64h7.76v5.17h-5.17v12.93c0 2.86-2.31 5.17-5.17 5.17s-5.17-2.31-5.17-5.17 2.31-5.17 5.17-5.17c.94 0 1.82.27 2.58.71zm-5.17 4.46c0 1.42 1.16 2.59 2.59 2.59 1.42 0 2.59-1.16 2.59-2.59s-1.16-2.59-2.59-2.59a2.603 2.603 0 0 0-2.59 2.59z" class="st13"/>
  <path d="M740.97 383.65h-18.1c-1.42 0-2.59 1.14-2.59 2.54v17.75c0 1.4 1.16 2.54 2.59 2.54h18.1c1.42 0 2.59-1.14 2.59-2.54v-17.75c-.01-1.4-1.17-2.54-2.59-2.54zm0 2.54v17.75h-18.1v-17.75h18.1zm-10.16 13.6l3.88-4.91 4.99 6.52h-15.52l3.88-4.9 2.77 3.29z" class="st6"/>
  <path d="M-51.07 118.65a3.45 3.45 0 0 1 0-6.9c1.63 0 3 1.14 3.35 2.66-.4-6.08-5.46-10.88-11.64-10.88-6.18 0-11.23 4.8-11.64 10.88a3.451 3.451 0 0 1 3.35-2.66 3.45 3.45 0 0 1 0 6.9c-1.63 0-3-1.14-3.35-2.66.41 6.08 5.46 10.88 11.64 10.88 6.18 0 11.23-4.8 11.64-10.88a3.432 3.432 0 0 1-3.35 2.66z" class="st1"/>
  <path d="M80.28 58.67c-6.42 0-11.64 5.22-11.64 11.64 0 6.42 5.22 11.64 11.64 11.64 6.42 0 11.64-5.22 11.64-11.64 0-6.42-5.22-11.64-11.64-11.64zM69.82 70.31c0-1.52.33-2.96.91-4.26l4.99 13.67c-3.49-1.69-5.9-5.27-5.9-9.41zm10.46 10.46c-1.03 0-2.02-.15-2.96-.43l3.14-9.12 3.22 8.81c.02.05.05.1.07.14-1.08.39-2.25.6-3.47.6zm1.44-15.37c.63-.03 1.2-.1 1.2-.1.56-.07.5-.9-.07-.86 0 0-1.69.13-2.79.13-1.03 0-2.76-.13-2.76-.13-.56-.03-.63.83-.07.86 0 0 .53.07 1.1.1l1.63 4.47-2.29 6.87-3.8-11.34c.63-.03 1.2-.1 1.2-.1.56-.07.5-.9-.07-.86 0 0-1.69.13-2.79.13-.2 0-.43 0-.67-.01 1.87-2.84 5.09-4.72 8.74-4.72 2.72 0 5.2 1.04 7.06 2.75-.05 0-.09-.01-.14-.01-1.03 0-1.76.9-1.76 1.86 0 .86.5 1.59 1.03 2.45.4.7.86 1.59.86 2.89 0 .9-.34 1.93-.8 3.38l-1.04 3.49-3.77-11.25zm7.74-.11c.82 1.49 1.28 3.2 1.28 5.02 0 3.86-2.09 7.23-5.2 9.04l3.2-9.24c.6-1.49.8-2.69.8-3.75-.01-.38-.03-.74-.08-1.07z" class="st14"/>
  <path d="M778.46 197.38c-6.42 0-11.64 5.22-11.64 11.64 0 6.42 5.22 11.64 11.64 11.64 6.42 0 11.64-5.22 11.64-11.64 0-6.42-5.22-11.64-11.64-11.64zM768 209.02c0-1.52.33-2.96.91-4.26l4.99 13.67c-3.49-1.69-5.9-5.27-5.9-9.41zm10.46 10.46c-1.03 0-2.02-.15-2.96-.43l3.14-9.12 3.22 8.81c.02.05.05.1.07.14-1.08.39-2.25.6-3.47.6zm1.45-15.37c.63-.03 1.2-.1 1.2-.1.56-.07.5-.9-.07-.86 0 0-1.69.13-2.79.13-1.03 0-2.76-.13-2.76-.13-.56-.03-.63.83-.07.86 0 0 .53.07 1.1.1l1.63 4.47-2.29 6.87-3.81-11.33c.63-.03 1.2-.1 1.2-.1.56-.07.5-.9-.07-.86 0 0-1.69.13-2.79.13-.2 0-.43 0-.67-.01 1.87-2.84 5.09-4.72 8.74-4.72 2.72 0 5.2 1.04 7.06 2.75-.05 0-.09-.01-.14-.01-1.03 0-1.76.9-1.76 1.86 0 .86.5 1.59 1.03 2.45.4.7.86 1.59.86 2.89 0 .9-.34 1.93-.8 3.38l-1.04 3.49-3.76-11.26zm7.73-.11c.82 1.49 1.28 3.2 1.28 5.02 0 3.86-2.09 7.23-5.2 9.04l3.2-9.24c.6-1.49.8-2.69.8-3.75-.01-.38-.03-.74-.08-1.07z" class="st1"/>
  <g>
    <path d="M400.01 340.52l-2.14.77-.76 2.13 2.84-.05zM402.57 343.79h-2.2l.01 2.2 1.63-.56zM395.43 347.46l-.97 2.06.97 2.05 1.98-2.05zM400.32 349.52l-.76-1.55-1.56 1.55 1.56 1.55zM401.02 348.79l1.11-.93-.13-1.44-1.54.75zM401.01 350.23l-.56 1.62 1.54.74.13-1.44zM403.75 355.16l1.62-.56-.93-1.11-1.43.13zM408.43 355.17l.75-1.54-1.44-.13-.93 1.1zM411.18 350.25l-1.11.92.13 1.44 1.54-.74zM411.19 348.81l.56-1.62-1.54-.75-.13 1.44zM408.45 343.88l-1.62.56.93 1.11 1.43-.13zM403.77 343.87l-.74 1.54 1.43.13.93-1.11zM399.04 344.44l-2.57 1.06 1.07 2.57 1.64-1.45zM399.16 352.36l-1.64-1.45-1.07 2.58 2.58 1.06zM403.21 356.43l-2.19.14 1.06 2.58 2.58-1.07zM408.95 356.45l-1.45 1.65 2.57 1.07 1.06-2.58zM413.16 354.6l2.57-1.07-1.07-2.57-1.64 1.45zM413.04 346.67l1.64 1.45 1.07-2.57-2.57-1.07zM408.99 342.6l2.19-.14-1.06-2.58-2.58 1.07zM403.25 342.58l1.45-1.65-2.57-1.07-1.06 2.58zM397.11 355.61l.76 2.14 2.14.76-.06-2.85zM400.37 355.24h2.2l-.56-1.63-1.63-.56zM404.05 360.19l2.05.96 2.05-.96-2.05-1.98zM406.1 355.3l-1.55.76 1.55 1.56 1.55-1.56zM412.19 358.51l2.14-.76.77-2.14-2.85.05zM411.82 353.05l-1.63.56-.56 1.63h2.2zM416.77 351.57l.97-2.05-.97-2.06-1.98 2.06zM411.88 349.52l.76 1.55 1.56-1.55-1.56-1.55zM412.19 340.52l.06 2.85 2.85.05-.77-2.13zM411.83 343.79h-2.2l.56 1.64 1.63.56zM408.15 338.85l-2.05-.97-2.05.97 2.05 1.97zM406.1 343.73l1.55-.76-1.55-1.55-1.55 1.55z" class="st1"/>
  </g>
  <path d="M271.75 296.92h-10.58c-3.5 0-6.35 2.85-6.35 6.35 0 3.5 2.85 6.35 6.35 6.35h10.58c3.5 0 6.35-2.85 6.35-6.35 0-3.5-2.85-6.35-6.35-6.35zm0 10.58h-10.58c-2.34 0-4.23-1.89-4.23-4.23s1.89-4.23 4.23-4.23h10.58c2.34 0 4.23 1.89 4.23 4.23s-1.89 4.23-4.23 4.23zM258 303.27c0-1.76 1.42-3.17 3.17-3.17 1.76 0 3.17 1.42 3.17 3.17 0 1.76-1.42 3.17-3.17 3.17s-3.17-1.41-3.17-3.17z" class="st13"/>
  <path d="M174.29 387.44h-7.72c-.5 0-1.63.3-1.63 1.78 0 1.47 1.1 1.63 1.42 1.63h2.59c.47 0 1.22.36 1.22 1.37s-.73 1.42-1.07 1.42h-6.05c-.33 0-1.32.36-1.32 1.68 0 1.32.97 1.73 1.42 1.73h5.18s1.27.1 1.27 1.32-.93 1.42-1.22 1.42h-1.47c-.22 0-1.37.41-1.37 1.63s1.1 1.73 1.42 1.73h7.37-1.73 7.37c.32 0 1.42-.51 1.42-1.73s-1.15-1.63-1.37-1.63h-1.47c-.28 0-1.22-.2-1.22-1.42s1.27-1.32 1.27-1.32h4.98c.46 0 1.42-.41 1.42-1.73s-1-1.68-1.32-1.68h-5.84c-.34 0-1.07-.41-1.07-1.42s.75-1.37 1.22-1.37h1.98c.32 0 1.42-.15 1.42-1.63 0-1.47-1.12-1.78-1.63-1.78h-7.11 1.64z" class="st5"/>
  <path d="M452.65 244.36c-6.43 0-11.64 5.21-11.64 11.64 0 6.43 5.21 11.64 11.64 11.64 6.43 0 11.64-5.21 11.64-11.64s-5.22-11.64-11.64-11.64zm0 23.27c0-6.43-5.21-11.64-11.64-11.64 6.43 0 11.64-5.21 11.64-11.64 0 6.43 5.21 11.64 11.64 11.64-6.43 0-11.64 5.21-11.64 11.64z" class="st2"/>
  <path d="M313.01 430.42c-6.4 0-11.64 5.24-11.64 11.64s5.24 11.64 11.64 11.64 11.64-5.24 11.64-11.64-5.24-11.64-11.64-11.64zm1.16 6.98h-2.33v3.49h-3.49v2.33h3.49v3.49h2.33v-3.49h3.49v-2.33h-3.49v-3.49zm-10.47 4.66c0 5.12 4.19 9.31 9.31 9.31s9.31-4.19 9.31-9.31-4.19-9.31-9.31-9.31-9.31 4.19-9.31 9.31z" class="st13"/>
  <g>
    <path d="M312.73 310.95v.16s.03.29.28.28c.25-.01.28-.29.28-.29v-1.16l-.56 1.01zm-.59-.5l-.17.32s-.12.27.11.38c.23.11.38-.11.38-.11l.65-1.18-.97.59zm1.35-.73v1.15l.1.17s.17.24.38.11c.22-.14.1-.39.1-.39l-.58-1.04zm1.15.32l-.92-.56-.11.07.45.8.29.18s.26.13.39-.09c.12-.24-.1-.4-.1-.4zM324.41 302.06l-13.04 7.97s-.24.18-.09.39c.14.21.39.09.39.09l12.98-7.92c0-.01-.08-.2-.24-.53zm-11.39 7.51c-.12 0-.22-.1-.22-.22s.1-.22.22-.22.22.1.22.22-.1.22-.22.22zM311.83 308.31l-3.55-2.17c-.12.14-.24.29-.35.44l4.35 2.66.05-.03-.5-.9zM312.53 308.01l-1.99-3.54c-.17.07-.34.16-.5.25l2.47 4.39.03-.02-.01-1.08zM313.29 303.96c-.09 0-.19-.01-.28-.01-.09 0-.19 0-.28.01v5l.56-1v-4M313.08 308.75l.97-.59 1.93-3.45c-.16-.09-.33-.17-.5-.25l-2.4 4.29z" class="st3"/>
    <path d="M313.01 295.15c-8.75 0-11.64 7.43-11.64 7.43l6.35 3.87a6.46 6.46 0 0 1 10.1-.6l6.46-3.94c-2.15-4.02-6.39-6.76-11.27-6.76zm0 8.03a3.74 3.74 0 1 1 .001-7.481 3.74 3.74 0 0 1-.001 7.481z" class="st3"/>
  </g>
  <path d="M583.59 340.21v3.72h6.83v14.89h3.72v-14.89h6.83v-3.72h-17.38z" class="st4"/>
  <g>
    <path d="M452.65 442.06c-6.43 0-11.64 5.21-11.64 11.64h4.19c0-4.11 3.34-7.45 7.45-7.45s7.45 3.34 7.45 7.45h4.19c-.01-6.43-5.22-11.64-11.64-11.64zM452.65 442.06c6.43 0 11.64-5.21 11.64-11.64h-4.19c0 4.11-3.34 7.45-7.45 7.45s-7.45-3.34-7.45-7.45h-4.19c0 6.43 5.21 11.64 11.64 11.64z" class="st2"/>
  </g>
  <path d="M412.5 162.52l5.24 3.1-11.53 6.81-11.75-6.95 5.23-3.09-3.58-2.11 5.4-3.2-2.41-1.42 6.93-4.1 7.07 4.18-2.44 1.44 5.43 3.21z" class="st4"/>
  <path d="M359.55 58.67c-6.42 0-11.64 5.22-11.64 11.64 0 6.42 5.22 11.64 11.64 11.64 6.42 0 11.64-5.22 11.64-11.64 0-6.42-5.22-11.64-11.64-11.64zm-10.46 11.64c0-1.52.33-2.96.91-4.26l4.99 13.67c-3.49-1.69-5.9-5.27-5.9-9.41zm10.46 10.46c-1.03 0-2.02-.15-2.96-.43l3.14-9.12 3.22 8.81c.02.05.05.1.07.14-1.08.39-2.25.6-3.47.6zM361 65.4c.63-.03 1.2-.1 1.2-.1.56-.07.5-.9-.07-.86 0 0-1.69.13-2.79.13-1.03 0-2.76-.13-2.76-.13-.56-.03-.63.83-.07.86 0 0 .53.07 1.1.1l1.63 4.47-2.29 6.87-3.81-11.33c.63-.03 1.2-.1 1.2-.1.56-.07.5-.9-.07-.86 0 0-1.69.13-2.79.13-.2 0-.43 0-.67-.01 1.87-2.84 5.09-4.72 8.74-4.72 2.72 0 5.2 1.04 7.06 2.75-.05 0-.09-.01-.14-.01-1.03 0-1.76.9-1.76 1.86 0 .86.5 1.59 1.03 2.45.4.7.86 1.59.86 2.89 0 .9-.34 1.93-.8 3.38l-1.04 3.49L361 65.4zm7.74-.11c.82 1.49 1.28 3.2 1.28 5.02 0 3.86-2.09 7.23-5.2 9.04l3.2-9.24c.6-1.49.8-2.69.8-3.75a11.4 11.4 0 0 0-.08-1.07z" class="st1"/>
  <g id="_x31_nJjg2.tif_4_">
    <path d="M257 11.95c.23.37.61.72.63 1.1.01.29-.39.78-.69.85-.33.08-.88-.12-1.09-.39-.18-.24-.08-.74-.01-1.12.03-.17.28-.3.44-.44h.72zM276.91 11.95c.14.13.31.23.42.38.34.46.34.95-.07 1.36-.41.41-.91.41-1.36.05-.42-.33-.47-.99-.12-1.42.12-.14.28-.25.42-.38.23.01.47.01.71.01zM282.37 24.1c-2.31 1.21-4.12 3.25-5.41 5.95-.52-.28-1.06-.52-1.54-.85a9.525 9.525 0 0 1-3.11-3.44c-.82-1.53-1.78-2.92-3.57-3.64.86-.9 1.69-1.75 2.51-2.61 1.22-1.26 2.47-2.5 3.67-3.77.31-.32.59-.42.93-.18.6.43 1.27.81 1.74 1.36.66.78 1.19 1.68 1.74 2.55.66 1.03 1.26 2.1 1.92 3.13.33.52.74.99 1.12 1.5zm-6.77.86c1.37 0 2.46-1.09 2.46-2.46a2.46 2.46 0 1 0-4.92 0c0 1.37 1.09 2.46 2.46 2.46zM264.45 22.12c-1.77.73-2.73 2.12-3.56 3.64-.89 1.65-2.16 2.92-3.79 3.85-.27.15-.56.27-.86.41-1.26-2.64-3.08-4.71-5.69-6.08 1.58-1.11 2.32-2.79 3.26-4.34.67-1.1 1.47-2.12 2.23-3.16.14-.19.35-.33.54-.47 1.05-.75 1.21-.74 2.09.17 1.79 1.84 3.58 3.68 5.38 5.52.13.13.23.26.4.46zm-4.38.42c.01-1.38-1.06-2.49-2.42-2.51-1.35-.02-2.49 1.09-2.52 2.43-.02 1.35 1.08 2.48 2.44 2.5 1.39.01 2.48-1.05 2.5-2.42zM255.26 35.22c-.6-.29-.43-.54-.12-.85 1.84-1.83 3.66-3.68 5.49-5.51 4.76-4.79 9.52-9.57 14.28-14.36.23-.23.45-.67.89-.07-6.83 6.92-13.68 13.85-20.54 20.79zM267.11 23.66c3.85 3.76 7.6 7.42 11.34 11.07-.24.49-.46.56-.82.19-3.47-3.53-6.95-7.05-10.41-10.58-.12-.14-.08-.44-.11-.68zM266.51 22.46c-.32.33-.43.45-.41.43-2.96-2.84-5.84-5.61-8.73-8.38.03-.09.06-.19.09-.28.21.02.49-.03.62.08 2.78 2.67 5.55 5.36 8.43 8.15z" class="st1"/>
  </g>
  <g id="_x31_nJjg2.tif_1_">
    <path d="M582.82 431.53c.23.37.61.72.63 1.1.01.29-.39.78-.69.85-.33.08-.88-.12-1.09-.39-.18-.24-.08-.74-.01-1.12.03-.17.28-.3.44-.44h.72zM602.73 431.53c.14.13.31.23.42.38.34.46.34.95-.07 1.36-.41.41-.91.41-1.36.05-.42-.33-.47-.99-.12-1.42.12-.14.28-.25.42-.38.23.01.47.01.71.01zM608.19 443.68c-2.31 1.21-4.12 3.25-5.41 5.95-.52-.28-1.06-.52-1.54-.85a9.525 9.525 0 0 1-3.11-3.44c-.82-1.53-1.78-2.92-3.57-3.64.86-.9 1.69-1.75 2.51-2.61 1.22-1.26 2.47-2.5 3.67-3.77.31-.32.59-.42.93-.18.6.43 1.27.81 1.74 1.36.66.78 1.19 1.68 1.74 2.55.66 1.03 1.26 2.1 1.92 3.13.33.52.74.99 1.12 1.5zm-6.77.86c1.37 0 2.46-1.09 2.46-2.46a2.46 2.46 0 1 0-4.92 0 2.433 2.433 0 0 0 2.46 2.46zM590.27 441.7c-1.77.73-2.73 2.12-3.56 3.64-.89 1.65-2.16 2.92-3.79 3.85-.27.15-.56.27-.86.41-1.26-2.64-3.08-4.71-5.69-6.08 1.58-1.11 2.32-2.79 3.26-4.34.67-1.1 1.47-2.12 2.23-3.16.14-.19.35-.33.54-.47 1.05-.75 1.21-.74 2.09.17 1.79 1.84 3.58 3.68 5.38 5.52.13.13.23.26.4.46zm-4.38.42c.01-1.38-1.06-2.49-2.42-2.51-1.35-.02-2.49 1.09-2.52 2.43-.02 1.35 1.08 2.48 2.44 2.5 1.38.01 2.48-1.05 2.5-2.42zM581.08 454.8c-.6-.29-.43-.54-.12-.85 1.84-1.83 3.66-3.68 5.49-5.51 4.76-4.79 9.52-9.57 14.28-14.36.23-.23.45-.67.89-.07-6.84 6.92-13.68 13.85-20.54 20.79zM592.92 443.24c3.85 3.76 7.6 7.42 11.34 11.07-.24.49-.46.56-.82.19-3.47-3.53-6.95-7.05-10.41-10.58-.12-.14-.07-.44-.11-.68zM592.33 442.04c-.32.33-.43.45-.41.43-2.96-2.84-5.84-5.61-8.73-8.38.03-.09.06-.19.09-.28.21.02.49-.03.62.08 2.78 2.67 5.55 5.36 8.43 8.15z" class="st1"/>
  </g>
  <g>
    <path d="M-82.63 512h46.55v46.55h-46.55z" class="st0"/>
    <path d="M-36.08 512h46.55v46.55h-46.55z" class="st1"/>
    <path d="M-82.63 558.55h46.55v46.55h-46.55z" class="st2"/>
    <path d="M-36.08 558.55h46.55v46.55h-46.55z" class="st3"/>
    <path d="M-82.63 605.09h46.55v46.55h-46.55z" class="st4"/>
    <path d="M-36.08 605.09h46.55v46.55h-46.55zM-82.63 651.64h46.55v46.55h-46.55z" class="st1"/>
    <path d="M-36.08 651.64h46.55v46.55h-46.55zM10.46 512h46.55v46.55H10.46z" class="st0"/>
    <path d="M57.01 512h46.55v46.55H57.01z" class="st5"/>
    <path d="M10.46 558.55h46.55v46.55H10.46z" class="st2"/>
    <path d="M57.01 558.55h46.55v46.55H57.01z" class="st1"/>
    <path d="M10.46 605.09h46.55v46.55H10.46z" class="st5"/>
    <path d="M57.01 605.09h46.55v46.55H57.01z" class="st4"/>
    <path d="M10.46 651.64h46.55v46.55H10.46z" class="st1"/>
    <path d="M57.01 651.64h46.55v46.55H57.01zM103.55 512h46.55v46.55h-46.55z" class="st2"/>
    <path d="M150.1 512h46.55v46.55H150.1z" class="st1"/>
    <path d="M103.55 558.55h46.55v46.55h-46.55z" class="st0"/>
    <path d="M150.1 558.55h46.55v46.55H150.1z" class="st4"/>
    <path d="M103.55 605.09h46.55v46.55h-46.55z" class="st1"/>
    <path d="M150.1 605.09h46.55v46.55H150.1z" class="st2"/>
    <path d="M103.55 651.64h46.55v46.55h-46.55z" class="st5"/>
    <path d="M150.1 651.64h46.55v46.55H150.1z" class="st0"/>
    <path d="M196.65 512h46.55v46.55h-46.55z" class="st2"/>
    <path d="M243.19 512h46.55v46.55h-46.55z" class="st3"/>
    <path d="M196.65 558.55h46.55v46.55h-46.55z" class="st5"/>
    <path d="M243.19 558.55h46.55v46.55h-46.55z" class="st1"/>
    <path d="M196.65 605.09h46.55v46.55h-46.55z" class="st1"/>
    <path d="M243.19 605.09h46.55v46.55h-46.55z" class="st0"/>
    <path d="M196.65 651.64h46.55v46.55h-46.55z" class="st2"/>
    <path d="M243.19 651.64h46.55v46.55h-46.55z" class="st3"/>
    <path d="M-82.63 698.18h46.55v46.55h-46.55z" class="st2"/>
    <path d="M-36.08 698.18h46.55v46.55h-46.55z" class="st1"/>
    <path d="M-82.63 744.73h46.55v46.55h-46.55z" class="st0"/>
    <path d="M-36.08 744.73h46.55v46.55h-46.55z" class="st4"/>
    <path d="M-82.63 791.27h46.55v46.55h-46.55z" class="st1"/>
    <path d="M-36.08 791.27h46.55v46.55h-46.55z" class="st3"/>
    <path d="M-82.63 837.82h46.55v46.55h-46.55z" class="st5"/>
    <path d="M-36.08 837.82h46.55v46.55h-46.55z" class="st0"/>
    <path d="M10.46 698.18h46.55v46.55H10.46z" class="st2"/>
    <path d="M57.01 698.18h46.55v46.55H57.01z" class="st3"/>
    <path d="M10.46 744.73h46.55v46.55H10.46z" class="st5"/>
    <path d="M57.01 744.73h46.55v46.55H57.01zM10.46 791.27h46.55v46.55H10.46z" class="st1"/>
    <path d="M57.01 791.27h46.55v46.55H57.01z" class="st0"/>
    <path d="M10.46 837.82h46.55v46.55H10.46z" class="st4"/>
    <path d="M57.01 837.82h46.55v46.55H57.01z" class="st3"/>
    <path d="M103.55 698.18h46.55v46.55h-46.55z" class="st0"/>
    <path d="M150.1 698.18h46.55v46.55H150.1z" class="st1"/>
    <path d="M103.55 744.73h46.55v46.55h-46.55z" class="st2"/>
    <path d="M150.1 744.73h46.55v46.55H150.1z" class="st3"/>
    <path d="M103.55 791.27h46.55v46.55h-46.55z" class="st4"/>
    <path d="M150.1 791.27h46.55v46.55H150.1zM103.55 837.82h46.55v46.55h-46.55z" class="st1"/>
    <path d="M150.1 837.82h46.55v46.55H150.1zM196.65 698.18h46.55v46.55h-46.55z" class="st0"/>
    <path d="M243.19 698.18h46.55v46.55h-46.55z" class="st5"/>
    <path d="M196.65 744.73h46.55v46.55h-46.55z" class="st2"/>
    <path d="M243.19 744.73h46.55v46.55h-46.55z" class="st1"/>
    <path d="M196.65 791.27h46.55v46.55h-46.55z" class="st5"/>
    <path d="M243.19 791.27h46.55v46.55h-46.55z" class="st4"/>
    <path d="M196.65 837.82h46.55v46.55h-46.55z" class="st1"/>
    <path d="M243.19 837.82h46.55v46.55h-46.55z" class="st2"/>
    <g>
      <path d="M289.74 512h46.55v46.55h-46.55z" class="st0"/>
      <path d="M336.28 512h46.55v46.55h-46.55z" class="st1"/>
      <path d="M289.74 558.55h46.55v46.55h-46.55z" class="st2"/>
      <path d="M336.28 558.55h46.55v46.55h-46.55z" class="st3"/>
      <path d="M289.74 605.09h46.55v46.55h-46.55z" class="st4"/>
      <path d="M336.28 605.09h46.55v46.55h-46.55zM289.74 651.64h46.55v46.55h-46.55z" class="st1"/>
      <path d="M336.28 651.64h46.55v46.55h-46.55zM382.83 512h46.55v46.55h-46.55z" class="st0"/>
      <path d="M429.37 512h46.55v46.55h-46.55z" class="st5"/>
      <path d="M382.83 558.55h46.55v46.55h-46.55z" class="st2"/>
      <path d="M429.37 558.55h46.55v46.55h-46.55z" class="st1"/>
      <path d="M382.83 605.09h46.55v46.55h-46.55z" class="st5"/>
      <path d="M429.37 605.09h46.55v46.55h-46.55z" class="st4"/>
      <path d="M382.83 651.64h46.55v46.55h-46.55z" class="st1"/>
      <path d="M429.37 651.64h46.55v46.55h-46.55zM475.92 512h46.55v46.55h-46.55z" class="st2"/>
      <path d="M522.46 512h46.55v46.55h-46.55z" class="st1"/>
      <path d="M475.92 558.55h46.55v46.55h-46.55z" class="st0"/>
      <path d="M522.46 558.55h46.55v46.55h-46.55z" class="st4"/>
      <path d="M475.92 605.09h46.55v46.55h-46.55z" class="st1"/>
      <path d="M522.46 605.09h46.55v46.55h-46.55z" class="st2"/>
      <path d="M475.92 651.64h46.55v46.55h-46.55z" class="st5"/>
      <path d="M522.46 651.64h46.55v46.55h-46.55z" class="st0"/>
      <path d="M569.01 512h46.55v46.55h-46.55z" class="st2"/>
      <path d="M615.55 512h46.55v46.55h-46.55z" class="st3"/>
      <path d="M569.01 558.55h46.55v46.55h-46.55z" class="st5"/>
      <path d="M615.55 558.55h46.55v46.55h-46.55z" class="st1"/>
      <path d="M569.01 605.09h46.55v46.55h-46.55z" class="st1"/>
      <path d="M615.55 605.09h46.55v46.55h-46.55z" class="st0"/>
      <path d="M569.01 651.64h46.55v46.55h-46.55z" class="st2"/>
      <path d="M615.55 651.64h46.55v46.55h-46.55z" class="st3"/>
      <path d="M289.74 698.18h46.55v46.55h-46.55z" class="st2"/>
      <path d="M336.28 698.18h46.55v46.55h-46.55z" class="st1"/>
      <path d="M289.74 744.73h46.55v46.55h-46.55z" class="st0"/>
      <path d="M336.28 744.73h46.55v46.55h-46.55z" class="st4"/>
      <path d="M289.74 791.27h46.55v46.55h-46.55z" class="st1"/>
      <path d="M336.28 791.27h46.55v46.55h-46.55z" class="st3"/>
      <path d="M289.74 837.82h46.55v46.55h-46.55z" class="st5"/>
      <path d="M336.28 837.82h46.55v46.55h-46.55z" class="st0"/>
      <path d="M382.83 698.18h46.55v46.55h-46.55z" class="st2"/>
      <path d="M429.37 698.18h46.55v46.55h-46.55z" class="st3"/>
      <path d="M382.83 744.73h46.55v46.55h-46.55z" class="st5"/>
      <path d="M429.37 744.73h46.55v46.55h-46.55z" class="st1"/>
      <path d="M382.83 791.27h46.55v46.55h-46.55z" class="st1"/>
      <path d="M429.37 791.27h46.55v46.55h-46.55z" class="st0"/>
      <path d="M382.83 837.82h46.55v46.55h-46.55z" class="st4"/>
      <path d="M429.37 837.82h46.55v46.55h-46.55z" class="st3"/>
      <path d="M475.92 698.18h46.55v46.55h-46.55z" class="st0"/>
      <path d="M522.46 698.18h46.55v46.55h-46.55z" class="st1"/>
      <path d="M475.92 744.73h46.55v46.55h-46.55z" class="st2"/>
      <path d="M522.46 744.73h46.55v46.55h-46.55z" class="st3"/>
      <path d="M475.92 791.27h46.55v46.55h-46.55z" class="st4"/>
      <path d="M522.46 791.27h46.55v46.55h-46.55zM475.92 837.82h46.55v46.55h-46.55z" class="st1"/>
      <path d="M522.46 837.82h46.55v46.55h-46.55zM569.01 698.18h46.55v46.55h-46.55z" class="st0"/>
      <path d="M615.55 698.18h46.55v46.55h-46.55z" class="st5"/>
      <path d="M569.01 744.73h46.55v46.55h-46.55z" class="st2"/>
      <path d="M615.55 744.73h46.55v46.55h-46.55z" class="st1"/>
      <path d="M569.01 791.27h46.55v46.55h-46.55z" class="st5"/>
      <path d="M615.55 791.27h46.55v46.55h-46.55z" class="st4"/>
      <path d="M569.01 837.82h46.55v46.55h-46.55z" class="st1"/>
      <path d="M615.55 837.82h46.55v46.55h-46.55z" class="st2"/>
    </g>
    <g>
      <path d="M662.1 512h46.55v46.55H662.1z" class="st0"/>
      <path d="M708.65 512h46.55v46.55h-46.55z" class="st1"/>
      <path d="M662.1 558.55h46.55v46.55H662.1z" class="st2"/>
      <path d="M708.65 558.55h46.55v46.55h-46.55z" class="st3"/>
      <path d="M662.1 605.09h46.55v46.55H662.1z" class="st4"/>
      <path d="M708.65 605.09h46.55v46.55h-46.55zM662.1 651.64h46.55v46.55H662.1z" class="st1"/>
      <path d="M708.65 651.64h46.55v46.55h-46.55zM755.19 512h46.55v46.55h-46.55z" class="st0"/>
      <path d="M801.74 512h46.55v46.55h-46.55z" class="st5"/>
      <path d="M755.19 558.55h46.55v46.55h-46.55z" class="st2"/>
      <path d="M801.74 558.55h46.55v46.55h-46.55z" class="st1"/>
      <path d="M755.19 605.09h46.55v46.55h-46.55z" class="st5"/>
      <path d="M801.74 605.09h46.55v46.55h-46.55z" class="st4"/>
      <path d="M755.19 651.64h46.55v46.55h-46.55z" class="st1"/>
      <path d="M801.74 651.64h46.55v46.55h-46.55zM662.1 698.18h46.55v46.55H662.1z" class="st2"/>
      <path d="M708.65 698.18h46.55v46.55h-46.55z" class="st1"/>
      <path d="M662.1 744.73h46.55v46.55H662.1z" class="st0"/>
      <path d="M708.65 744.73h46.55v46.55h-46.55z" class="st4"/>
      <path d="M662.1 791.27h46.55v46.55H662.1z" class="st1"/>
      <path d="M708.65 791.27h46.55v46.55h-46.55z" class="st3"/>
      <path d="M662.1 837.82h46.55v46.55H662.1z" class="st5"/>
      <path d="M708.65 837.82h46.55v46.55h-46.55z" class="st0"/>
      <path d="M755.19 698.18h46.55v46.55h-46.55z" class="st2"/>
      <path d="M801.74 698.18h46.55v46.55h-46.55z" class="st3"/>
      <path d="M755.19 744.73h46.55v46.55h-46.55z" class="st5"/>
      <path d="M801.74 744.73h46.55v46.55h-46.55zM755.19 791.27h46.55v46.55h-46.55z" class="st1"/>
      <path d="M801.74 791.27h46.55v46.55h-46.55z" class="st0"/>
      <path d="M755.19 837.82h46.55v46.55h-46.55z" class="st4"/>
      <path d="M801.74 837.82h46.55v46.55h-46.55z" class="st3"/>
    </g>
    <g>
      <path d="M-82.63 884.36h46.55v46.55h-46.55z" class="st0"/>
      <path d="M-36.08 884.36h46.55v46.55h-46.55z" class="st1"/>
      <path d="M-82.63 930.91h46.55v46.55h-46.55z" class="st2"/>
      <path d="M-36.08 930.91h46.55v46.55h-46.55z" class="st3"/>
      <path d="M-82.63 977.45h46.55V1024h-46.55z" class="st4"/>
      <path d="M-36.08 977.45h46.55V1024h-46.55z" class="st1"/>
      <path d="M10.46 884.36h46.55v46.55H10.46z" class="st0"/>
      <path d="M57.01 884.36h46.55v46.55H57.01z" class="st5"/>
      <path d="M10.46 930.91h46.55v46.55H10.46z" class="st2"/>
      <path d="M57.01 930.91h46.55v46.55H57.01z" class="st1"/>
      <path d="M10.46 977.45h46.55V1024H10.46z" class="st5"/>
      <path d="M57.01 977.45h46.55V1024H57.01z" class="st4"/>
      <path d="M103.55 884.36h46.55v46.55h-46.55z" class="st2"/>
      <path d="M150.1 884.36h46.55v46.55H150.1z" class="st1"/>
      <path d="M103.55 930.91h46.55v46.55h-46.55z" class="st0"/>
      <path d="M150.1 930.91h46.55v46.55H150.1z" class="st4"/>
      <path d="M103.55 977.45h46.55V1024h-46.55z" class="st1"/>
      <path d="M150.1 977.45h46.55V1024H150.1zM196.65 884.36h46.55v46.55h-46.55z" class="st2"/>
      <path d="M243.19 884.36h46.55v46.55h-46.55z" class="st3"/>
      <path d="M196.65 930.91h46.55v46.55h-46.55z" class="st5"/>
      <path d="M243.19 930.91h46.55v46.55h-46.55z" class="st1"/>
      <path d="M196.65 977.45h46.55V1024h-46.55z" class="st1"/>
      <path d="M243.19 977.45h46.55V1024h-46.55z" class="st0"/>
    </g>
    <g>
      <path d="M289.74 884.36h46.55v46.55h-46.55z" class="st0"/>
      <path d="M336.28 884.36h46.55v46.55h-46.55z" class="st1"/>
      <path d="M289.74 930.91h46.55v46.55h-46.55z" class="st2"/>
      <path d="M336.28 930.91h46.55v46.55h-46.55z" class="st3"/>
      <path d="M289.74 977.45h46.55V1024h-46.55z" class="st4"/>
      <path d="M336.28 977.45h46.55V1024h-46.55z" class="st1"/>
      <path d="M382.83 884.36h46.55v46.55h-46.55z" class="st0"/>
      <path d="M429.37 884.36h46.55v46.55h-46.55z" class="st5"/>
      <path d="M382.83 930.91h46.55v46.55h-46.55z" class="st2"/>
      <path d="M429.37 930.91h46.55v46.55h-46.55z" class="st1"/>
      <path d="M382.83 977.45h46.55V1024h-46.55z" class="st5"/>
      <path d="M429.37 977.45h46.55V1024h-46.55z" class="st4"/>
      <path d="M475.92 884.36h46.55v46.55h-46.55z" class="st2"/>
      <path d="M522.46 884.36h46.55v46.55h-46.55z" class="st1"/>
      <path d="M475.92 930.91h46.55v46.55h-46.55z" class="st0"/>
      <path d="M522.46 930.91h46.55v46.55h-46.55z" class="st4"/>
      <path d="M475.92 977.45h46.55V1024h-46.55z" class="st1"/>
      <path d="M522.46 977.45h46.55V1024h-46.55zM569.01 884.36h46.55v46.55h-46.55z" class="st2"/>
      <path d="M615.55 884.36h46.55v46.55h-46.55z" class="st3"/>
      <path d="M569.01 930.91h46.55v46.55h-46.55z" class="st5"/>
      <path d="M615.55 930.91h46.55v46.55h-46.55z" class="st1"/>
      <path d="M569.01 977.45h46.55V1024h-46.55z" class="st1"/>
      <path d="M615.55 977.45h46.55V1024h-46.55z" class="st0"/>
    </g>
    <g>
      <path d="M662.1 884.36h46.55v46.55H662.1z" class="st0"/>
      <path d="M708.65 884.36h46.55v46.55h-46.55z" class="st1"/>
      <path d="M662.1 930.91h46.55v46.55H662.1z" class="st2"/>
      <path d="M708.65 930.91h46.55v46.55h-46.55z" class="st3"/>
      <path d="M662.1 977.45h46.55V1024H662.1z" class="st4"/>
      <path d="M708.65 977.45h46.55V1024h-46.55z" class="st1"/>
      <path d="M755.19 884.36h46.55v46.55h-46.55z" class="st0"/>
      <path d="M801.74 884.36h46.55v46.55h-46.55z" class="st5"/>
      <path d="M755.19 930.91h46.55v46.55h-46.55z" class="st2"/>
      <path d="M801.74 930.91h46.55v46.55h-46.55z" class="st1"/>
      <path d="M755.19 977.45h46.55V1024h-46.55z" class="st5"/>
      <path d="M801.74 977.45h46.55V1024h-46.55z" class="st4"/>
    </g>
    <path d="M-15.39 523.91h12.28v2.59H-5.7v20.69h-2.59V526.5h-2.59v20.69h-2.59v-9.05h-1.94c-3.88 0-7.11-3.23-7.11-7.11s3.25-7.12 7.13-7.12zm0 11.63h1.94v-9.05h-1.94c-2.46 0-4.53 2.07-4.53 4.53 0 2.45 2.07 4.52 4.53 4.52z" class="st6"/>
    <path d="M219.92 570.67c-6.43 0-11.64 5.21-11.64 11.64 0 6.43 5.21 11.64 11.64 11.64 6.43 0 11.64-5.21 11.64-11.64-.01-6.43-5.21-11.64-11.64-11.64zm0 23.27c0-6.43-5.21-11.64-11.64-11.64 6.43 0 11.64-5.21 11.64-11.64 0 6.43 5.21 11.64 11.64 11.64-6.43.01-11.64 5.22-11.64 11.64z" class="st1"/>
    <g>
      <path d="M725.83 665.28l-2.14.77-.77 2.14 2.85-.06zM728.39 668.55h-2.2v2.2l1.64-.56zM721.25 672.23l-.97 2.05.97 2.05 1.98-2.05zM726.14 674.28l-.77-1.55-1.55 1.55 1.55 1.55zM726.84 673.55l1.11-.93-.13-1.44-1.54.75zM726.83 674.99l-.56 1.62 1.54.74.13-1.43zM729.57 679.92l1.62-.56-.93-1.11-1.44.13zM734.25 679.93l.74-1.54-1.43-.13-.93 1.11zM737 675.01l-1.11.92.13 1.44 1.54-.74zM737.01 673.57l.56-1.62-1.54-.75-.13 1.44zM734.27 668.64l-1.62.56.92 1.11 1.44-.13zM729.59 668.63l-.75 1.54 1.44.13.93-1.11zM724.86 669.2l-2.57 1.06 1.07 2.58 1.64-1.45zM724.98 677.12l-1.64-1.45-1.07 2.58 2.57 1.06zM729.03 681.2l-2.19.13 1.06 2.58 2.58-1.07zM734.76 681.21l-1.45 1.65 2.58 1.07 1.06-2.58zM738.97 679.36l2.58-1.06-1.07-2.58-1.64 1.45zM738.86 671.43l1.64 1.45 1.07-2.57-2.58-1.07zM734.81 667.36l2.19-.14-1.06-2.57-2.58 1.07zM729.07 667.34l1.45-1.64-2.57-1.07-1.07 2.57zM722.92 680.37l.77 2.14 2.14.76-.06-2.84zM726.19 680.01l2.2-.01-.56-1.63-1.64-.56zM729.87 684.95l2.05.96 2.05-.96-2.05-1.98zM731.92 680.06l-1.55.76 1.55 1.56 1.55-1.56zM738.01 683.27l2.14-.76.76-2.14-2.84.06zM737.64 677.81l-1.63.56-.56 1.63 2.2.01zM742.59 676.33l.96-2.05-.96-2.05-1.98 2.05zM737.7 674.28l.76 1.55 1.56-1.55-1.56-1.55zM738.01 665.28l.06 2.85 2.84.06-.76-2.14zM737.65 668.55h-2.2l.56 1.64 1.63.56zM733.97 663.61l-2.05-.97-2.05.97 2.05 1.98zM731.92 668.5l1.55-.77-1.55-1.55-1.55 1.55z" class="st1"/>
    </g>
    <path d="M85.57 947.71H74.99c-3.5 0-6.35 2.85-6.35 6.35 0 3.5 2.85 6.35 6.35 6.35h10.58c3.5 0 6.35-2.85 6.35-6.35 0-3.51-2.85-6.35-6.35-6.35zm0 10.58H74.99c-2.34 0-4.23-1.89-4.23-4.23 0-2.34 1.89-4.23 4.23-4.23h10.58c2.34 0 4.23 1.89 4.23 4.23 0 2.33-1.89 4.23-4.23 4.23zm-13.75-4.23c0-1.76 1.42-3.17 3.17-3.17a3.171 3.171 0 1 1-3.17 3.17z" class="st7"/>
    <path d="M685.37 803.63c-6.4 0-11.64 5.24-11.64 11.64s5.24 11.64 11.64 11.64 11.64-5.24 11.64-11.64-5.24-11.64-11.64-11.64zm1.17 6.99h-2.33v3.49h-3.49v2.33h3.49v3.49h2.33v-3.49h3.49v-2.33h-3.49v-3.49zm-10.48 4.65c0 5.12 4.19 9.31 9.31 9.31s9.31-4.19 9.31-9.31-4.19-9.31-9.31-9.31-9.31 4.19-9.31 9.31z" class="st8"/>
    <path d="M-50.17 756.97h-18.37c-1.35 0-2.45 1.1-2.45 2.45v17.15c0 1.35 1.1 2.45 2.45 2.45h18.37c1.35 0 2.45-1.1 2.45-2.45v-17.15c0-1.35-1.1-2.45-2.45-2.45zm0 2.45v3.67h-18.37v-3.67h18.37zm-12.25 17.15h6.12v-11.02h-6.12v11.02zm-6.12-11.03h3.67v11.02h-3.67v-11.02zm14.7 0v11.02h3.67v-11.02h-3.67z" class="st9"/>
    <path d="M769.78 992.13v3.72h6.83v14.89h3.72v-14.89h6.83v-3.72h-17.38z" class="st10"/>
    <g>
      <path d="M359.55 996.35l-3.27-3.27-8.36 8.36 8.36 8.36 3.27-3.28-5.08-5.08z" class="st2"/>
      <path d="M356.22 997.95h6.97v6.97h-6.97z" class="st2" transform="rotate(-45.001 359.7 1001.446)"/>
      <path d="M362.83 993.08l-3.28 3.27.16.16 3.12-3.12 8.05 8.05-8.05 8.05-3.12-3.12-.16.15 3.28 3.28 8.36-8.36z" class="st2"/>
    </g>
    <g>
      <path d="M88.31 675.37c.88-.05 1.9-.79 2.09-1.39.05.6.09.93.09 1.07.84.05 1.24-.37 1.43-.51 0 0-.18 1.62-3.61 1.58v-.75zM84.73 681.17c.65.56 1.3.79 2.41.56-.05.42-.79.62-.93.62-.32.05-.19.42.05.46.23.05.51.4 1.44.31.51.28-.46.32-.46.32s-1.63.56-3.34-1.72c.04-.13.83-.55.83-.55zM84.68 673c1.3 4.09-2.26 6.43-3.51 6.11 1.9.98 3.84-1.23 4.25-2.02.42-.79.75-3.72-.74-4.09z" class="st1"/>
      <path d="M89.23 666.83c-2.28-2.28-4.83-2.14-7.57-1.39-1.58.42-2.2 1.44-3.56 1.51s-2.66-.07-3.73.07c-1.07.14-3.67 1.3-4.55 3.71-.19.51-.99.95-1.18 1.13 1.25.46 1.37.4 1.92.82.56.42 1.99 2.07 2.03 3.04.05.98.24 9.54 5.35 10.1-.09-2.51 1.62-3.58 3.34-3.99 1.72-.42 6.18-1.07 6.59-6.83 0-1.49-1.07-3.2-.98-4.78s2.34-3.39 2.34-3.39zm-15.77 4.04c-.46 0-.84-.37-.84-.84s.37-.84.84-.84c.46 0 .84.37.84.84s-.38.84-.84.84zm11.97 6.22c-.42.79-2.35 3-4.25 2.02 1.25.32 4.81-2.02 3.51-6.11 1.48.37 1.15 3.3.74 4.09z" class="st1"/>
    </g>
    <path d="M820.64 589.77h-6.78l2.59-4.97h-3.08v-9.95h10.34v9l-3.07 5.92zm6.15 0h6.77l3.08-5.92v-9H826.3v9.95h3.08l-2.59 4.97zm5.18-2.49h-.98l2.59-4.97h-4.68v-4.97h5.17v5.92l-2.1 4.02zm-12.93 0h-.98l2.59-4.97h-4.68v-4.97h5.17v5.92l-2.1 4.02z" class="st11"/>
    <path d="M634.33 950.17c0 1.97-1.6 3.57-3.57 3.57-1.97 0-3.57-1.6-3.57-3.57 0-1.97 1.6-3.57 3.57-3.57 1.97 0 3.57 1.6 3.57 3.57zm-2.91-.66h-1.32v1.32h1.32v-1.32zm10.98.66c0 1.97-1.6 3.57-3.57 3.57-1.97 0-3.57-1.6-3.57-3.57 0-1.97 1.6-3.57 3.57-3.57 1.97 0 3.57 1.6 3.57 3.57zm-2.91-.66h-1.32v1.32h1.32v-1.32zm10.97.66c0 1.97-1.6 3.57-3.57 3.57-1.97 0-3.57-1.6-3.57-3.57 0-1.97 1.6-3.57 3.57-3.57 1.98 0 3.57 1.6 3.57 3.57m-2.9-.66h-1.32v1.32h1.32v-1.32zm-13.23 8.43c0 1.97-1.6 3.57-3.57 3.57-1.97 0-3.57-1.6-3.57-3.57 0-1.97 1.6-3.57 3.57-3.57 1.97.01 3.57 1.6 3.57 3.57zm-2.91-.66h-1.32v1.32h1.32v-1.32zm10.98.66c0 1.97-1.6 3.57-3.57 3.57-1.97 0-3.57-1.6-3.57-3.57 0-1.97 1.6-3.57 3.57-3.57 1.97.01 3.57 1.6 3.57 3.57zm-2.91-.66h-1.32v1.32h1.32v-1.32zm10.97.66c0 1.97-1.6 3.57-3.57 3.57-1.97 0-3.57-1.6-3.57-3.57 0-1.97 1.6-3.57 3.57-3.57 1.98.01 3.57 1.6 3.57 3.57m-2.9-.66h-1.32v1.32h1.32v-1.32z" class="st4"/>
    <path d="M546.65 619.36h-7.72c-.51 0-1.63.3-1.63 1.78 0 1.47 1.1 1.63 1.42 1.63h2.59c.47 0 1.22.36 1.22 1.37s-.73 1.42-1.07 1.42h-6.05c-.32 0-1.32.36-1.32 1.68s.97 1.73 1.42 1.73h5.18s1.27.1 1.27 1.32-.93 1.42-1.22 1.42h-1.47c-.22 0-1.37.41-1.37 1.63s1.1 1.73 1.42 1.73h7.37-1.73 7.37c.32 0 1.42-.51 1.42-1.73s-1.15-1.63-1.37-1.63h-1.47c-.28 0-1.22-.2-1.22-1.42s1.27-1.32 1.27-1.32h4.98c.46 0 1.42-.41 1.42-1.73s-1-1.68-1.32-1.68h-5.84c-.34 0-1.07-.41-1.07-1.42s.75-1.37 1.22-1.37h1.98c.32 0 1.42-.15 1.42-1.63 0-1.47-1.12-1.78-1.63-1.78h-7.11 1.64z" class="st1"/>
    <g>
      <path d="M-12.8 899.11l-5.58 3.91 5.58 3.92 5.56-3.94zM-12.8 907.64l-5.58 3.91 5.58 3.92 5.56-3.94zM-6.73 903.37l-5.58 3.92 5.58 3.91 5.56-3.94zM-18.86 903.37l-5.59 3.92 5.59 3.91 5.56-3.94z" class="st3"/>
    </g>
    <path d="M638.83 523.91c-6.43 0-11.64 5.21-11.64 11.64 0 6.43 5.21 11.64 11.64 11.64 6.43 0 11.64-5.21 11.64-11.64-.01-6.43-5.22-11.64-11.64-11.64zm0 2.2c3.15 0 5.93 1.54 7.65 3.91h-15.29a9.406 9.406 0 0 1 7.64-3.91zm-9.15 7.12h18.29c.19.74.29 1.51.29 2.31 0 .73-.09 1.45-.24 2.13v-.03h-18.38c-.15-.68-.24-1.38-.24-2.1 0-.79.1-1.57.28-2.31zm9.15 11.74a9.45 9.45 0 0 1-7.8-4.12h15.59a9.394 9.394 0 0 1-7.79 4.12z" class="st1"/>
    <g>
      <path d="M256.76 717.95h2.52v2.31h-2.52zM272.27 717.95h-10.56c0 .7-.02 1.48-.04 2.31h10.61v-2.31z" class="st1"/>
      <path d="M261.4 715.59h-2.56c0 .57 0 1.26-.03 2.04h.79v2.94h-.95c-.26 3.04-.89 6.82-2.36 10.81h3.43c1.79-4.98 1.69-12.69 1.68-15.79zM276.17 720.26v-2.31h-1.84c.02.69.06 1.47.13 2.31h1.71z" class="st1"/>
      <path d="M276.54 731.38c-2.47-6.69-2.55-12.8-2.55-15.79h-2.56c0 .55-.01 1.25 0 2.04h1.17v2.94h-1.11c.12 3.47.5 7.68 1.63 10.81h3.42zM257 714.64h18.68v.63H257zM275.54 714.4c1.82 0 2.56-1.92 2.56-3.74-.41.36-1.49.83-2.28.83h-18.7c-.8 0-1.87-.47-2.28-.83 0 1.82.74 3.74 2.56 3.74h18.14zM265.17 715.5h2.53v2.23h-2.53z" class="st1"/>
    </g>
    <g>
      <path d="M-21.97 1005.93a1.24 1.24 0 1 1-1.24-1.24c.69 0 1.24.55 1.24 1.24z" class="st2"/>
      <circle cx="-19.57" cy="1003.5" r="1.02" class="st2"/>
      <path d="M-5.01 1001.4c0 .57-.46 1.03-1.03 1.03-.57 0-1.03-.46-1.03-1.03 0-.57.46-1.03 1.03-1.03.57 0 1.03.46 1.03 1.03z" class="st2"/>
      <circle cx="-8.22" cy="997.19" r="1.25" class="st2"/>
      <path d="M-1.17 1000.9c0 .55-.44.99-.99.99s-.99-.44-.99-.99.44-.99.99-.99c.54-.01.99.44.99.99zM-3.18 1007.01c-1.14.34-2.34.53-3.59.53-1.7 0-3.32-.34-4.8-.96a8.56 8.56 0 0 1-3.97.96c-1.54 0-2.99-.4-4.24-1.11.56.1 1.14.16 1.73.16 2.47 0 4.72-.94 6.41-2.49.36-.31.59-.77.59-1.29a1.699 1.699 0 0 0-2.89-1.21c-.3.3-.5.73-.74.96-.56.56-1.45.56-2.01 0s-.56-1.45 0-2.01c.48-.48 1.31-.59 1.72-1 .28-.27.45-.64.45-1.05 0-.8-.65-1.46-1.46-1.46-.41 0-.78.17-1.04.44-.39.39-.75 1.43-1.24 1.92-.71.71-1.85.71-2.56 0s-.71-1.85 0-2.56c.79-.79 2.54-1.51 3.82-1.51 2.66 0 3.84 1.73 5.57 4.63 2.16 3.6 4.91 5.91 8.25 7.05z" class="st2"/>
    </g>
    <g>
      <path d="M126.55 543.22v.16s.03.29.28.28c.25-.01.28-.29.28-.29v-1.16l-.56 1.01zm-.59-.5l-.17.32s-.12.27.11.38c.23.11.38-.11.38-.11l.65-1.18-.97.59zm1.35-.73v1.15l.1.17s.17.24.38.11c.22-.14.1-.39.1-.39l-.58-1.04zm1.15.32l-.92-.56-.11.07.45.8.29.18s.26.13.39-.09c.12-.23-.1-.4-.1-.4zM138.23 534.33l-13.04 7.97s-.24.18-.09.39c.14.21.39.09.39.09l12.98-7.92c-.01-.01-.08-.2-.24-.53zm-11.39 7.51c-.12 0-.22-.1-.22-.22s.1-.22.22-.22.22.1.22.22-.1.22-.22.22zM125.65 540.58l-3.55-2.17c-.12.14-.24.29-.35.44l4.35 2.66.05-.03-.5-.9zM126.35 540.28l-1.99-3.54c-.17.07-.34.16-.5.25l2.47 4.39.03-.02-.01-1.08zM127.11 536.23c-.09 0-.19-.01-.28-.01-.09 0-.19 0-.28.01v5l.56-1v-4M126.9 541.02l.97-.59 1.93-3.45c-.16-.09-.33-.17-.5-.25l-2.4 4.29z" class="st1"/>
      <path d="M126.83 527.43c-8.75 0-11.64 7.43-11.64 7.43l6.35 3.87a6.46 6.46 0 0 1 10.1-.6l6.46-3.94a12.754 12.754 0 0 0-11.27-6.76zm0 8.02a3.74 3.74 0 1 1 3.74-3.74c0 2.06-1.68 3.74-3.74 3.74z" class="st1"/>
    </g>
    <g>
      <path d="M500.69 721.02c0 .83-.67 1.5-1.5 1.5s-1.5-.67-1.5-1.5.67-1.5 1.5-1.5 1.5.67 1.5 1.5z" class="st1"/>
      <path d="M499.19 716.64c.13 0 .23.1.23.23v2.19c.46.05.87.27 1.18.58l2.65-2.02c.2-.16.37-.36.51-.59.56-.99.22-2.24-.76-2.81-.5-.29-1.08-.34-1.6-.19-.03-1.19-1-2.15-2.2-2.15s-2.18.96-2.2 2.15c-.52-.15-1.09-.1-1.6.19-.99.56-1.33 1.82-.76 2.81.13.24.31.44.51.59l2.65 2.02c.31-.31.72-.53 1.18-.58v-2.19c-.02-.12.08-.23.21-.23zM493.95 721.02c0-.13.1-.23.23-.23h3.06c.03-.28.12-.54.26-.77l-3.36-2.56a2.6 2.6 0 0 0-4.09 1.88h-.81c-.93 0-1.68.75-1.68 1.68 0 .93.75 1.68 1.68 1.68h.81a2.607 2.607 0 0 0 2.59 2.36c.56 0 1.08-.18 1.5-.48l3.36-2.56c-.14-.23-.23-.49-.26-.77h-3.06c-.13 0-.23-.11-.23-.23zM499.19 725.39c-.13 0-.23-.1-.23-.23v-2.19a1.98 1.98 0 0 1-1.18-.58l-2.65 2.02c-.2.16-.37.36-.51.59-.56.99-.22 2.24.76 2.81.5.29 1.08.34 1.6.19.03 1.19 1 2.15 2.2 2.15s2.18-.96 2.2-2.15c.52.15 1.09.1 1.6-.19.99-.56 1.33-1.82.76-2.81-.13-.24-.31-.44-.51-.59l-2.65-2.02c-.31.31-.72.53-1.18.58v2.19c.02.12-.08.23-.21.23zM504.43 721.02c0 .13-.1.23-.23.23h-3.06c-.03.28-.12.54-.26.77l3.36 2.56a2.6 2.6 0 0 0 4.09-1.88h.81c.93 0 1.68-.75 1.68-1.68 0-.93-.75-1.68-1.68-1.68h-.81a2.607 2.607 0 0 0-2.59-2.36c-.56 0-1.08.18-1.5.48l-3.36 2.56c.14.23.23.49.26.77h3.06c.13-.01.23.1.23.23z" class="st1"/>
    </g>
    <g>
      <path d="M540.2 998.22l5.3-3.68-2.79-1.61-2.78-1.6-.53 6.42-5.3 3.68 2.78 1.6 2.79 1.61zM552.08 997.75l-.54-6.42-2.78 1.6-2.78 1.61 5.29 3.68.54 6.42 2.78-1.61 2.78-1.6zM545.74 1007.87l-5.83-2.75v6.43l5.83-2.75 5.83 2.75v-6.43z" class="st1"/>
    </g>
    <path d="M219.92 995.65c.58-.99 1.38-1.71 2.36-2.24.85-.46 1.76-.71 2.71-.82.9-.11 1.74.12 2.56.46 2.01.82 3.19 2.34 3.69 4.43.15.62.27 1.25.3 1.9.06 1.37-.17 2.69-.69 3.96-.62 1.51-1.59 2.77-2.81 3.85-.78.7-1.63 1.3-2.55 1.8-.74.41-1.54.67-2.36.89-1.16.31-2.34.5-3.54.45-1.8-.07-3.54-.48-5.15-1.29-1.09-.55-2.06-1.28-2.95-2.12-1.22-1.15-2.15-2.48-2.7-4.07-.54-1.57-.67-3.18-.33-4.81.17-.81.38-1.6.79-2.33.81-1.46 2.05-2.38 3.63-2.87.46-.14.94-.26 1.42-.26.35 0 .7.05 1.05.11 1.21.21 2.31.67 3.26 1.46.5.41.92.89 1.25 1.45.02-.01.04.01.06.05zm0 1.73c-.24.22-.41.47-.56.74-.35.66-.44 1.37-.37 2.11.03.33.07.66.22.96.11.22.26.38.5.45.38.11.76-.08.94-.49.13-.29.17-.61.2-.93.06-.68-.01-1.33-.3-1.95-.15-.33-.35-.63-.63-.89zm-.83-.59c-.04 0-.08-.02-.13-.01-.36.02-.73 0-1.08.06-.93.14-1.72.56-2.32 1.29a.807.807 0 0 0 .42 1.29c.63.16 1.14-.09 1.41-.68.38-.82.87-1.52 1.7-1.95zm1.62 0c.15.08.26.14.36.21.65.43 1.06 1.05 1.38 1.74.24.52.63.77 1.2.71.18-.02.4-.06.54-.17.34-.27.37-.84.08-1.16-.21-.23-.44-.45-.69-.63-.73-.52-1.56-.71-2.44-.71-.14-.02-.27 0-.43.01z" class="st3"/>
    <path d="M40.13 768.51l5.24 3.1-11.52 6.82-11.75-6.95 5.23-3.09-3.58-2.12 5.4-3.19-2.41-1.42 6.93-4.1 7.06 4.18-2.43 1.44 5.42 3.21z" class="st1"/>
    <g>
      <path d="M679.54 1013.07l-3.28-2.13-2.22-21.14 5.51 3.55 5.5-3.55-2.22 21.14zM691.2 1013.07l-3.29-2.13-2.21-21.14 5.5 3.55 5.51-3.55-2.22 21.14z" class="st1"/>
    </g>
    <g>
      <path d="M545.74 535.54c-6.43 0-11.64 5.21-11.64 11.64h4.19c0-4.11 3.34-7.45 7.45-7.45s7.45 3.34 7.45 7.45h4.19c-.01-6.43-5.22-11.64-11.64-11.64zM545.74 535.54c6.43 0 11.64-5.21 11.64-11.64h-4.19c0 4.11-3.34 7.45-7.45 7.45s-7.45-3.34-7.45-7.45h-4.19c0 6.43 5.21 11.64 11.64 11.64z" class="st0"/>
    </g>
    <path d="M118.38 854.4h16.9v1.78h-16.9v-1.78zm16.01 3.56h-15.12c-.49 0-.89.4-.89.89v5.34c0 .49.4.89.89.89h15.12c.49 0 .89-.4.89-.89v-5.34c0-.49-.4-.89-.89-.89zm-.89 5.34v-3.56h-13.34v3.56h13.34zm-15.12 3.55h16.9v1.78h-16.9v-1.78z" class="st12"/>
    <path d="M825.01 863.52v-13.64h7.76v5.17h-5.17v12.93c0 2.86-2.31 5.17-5.17 5.17s-5.17-2.31-5.17-5.17 2.31-5.17 5.17-5.17c.94 0 1.82.27 2.58.71zm-5.17 4.46c0 1.42 1.16 2.59 2.59 2.59 1.42 0 2.59-1.16 2.59-2.59s-1.16-2.59-2.59-2.59a2.603 2.603 0 0 0-2.59 2.59z" class="st13"/>
    <path d="M740.97 895.65h-18.1c-1.42 0-2.59 1.14-2.59 2.54v17.75c0 1.4 1.16 2.54 2.59 2.54h18.1c1.42 0 2.59-1.14 2.59-2.54v-17.75c-.01-1.4-1.17-2.54-2.59-2.54zm0 2.54v17.75h-18.1v-17.75h18.1zm-10.16 13.6l3.88-4.91 4.99 6.52h-15.52l3.88-4.9 2.77 3.29z" class="st6"/>
    <path d="M-51.07 630.65a3.45 3.45 0 0 1 0-6.9c1.63 0 3 1.14 3.35 2.66-.4-6.08-5.46-10.88-11.64-10.88-6.18 0-11.23 4.8-11.64 10.88a3.451 3.451 0 0 1 3.35-2.66 3.45 3.45 0 0 1 0 6.9c-1.63 0-3-1.14-3.35-2.66.41 6.08 5.46 10.88 11.64 10.88 6.18 0 11.23-4.8 11.64-10.88a3.432 3.432 0 0 1-3.35 2.66z" class="st1"/>
    <path d="M80.28 570.67c-6.42 0-11.64 5.22-11.64 11.64 0 6.42 5.22 11.64 11.64 11.64 6.42 0 11.64-5.22 11.64-11.64 0-6.42-5.22-11.64-11.64-11.64zm-10.46 11.64c0-1.52.33-2.96.91-4.26l4.99 13.67c-3.49-1.69-5.9-5.27-5.9-9.41zm10.46 10.46c-1.03 0-2.02-.15-2.96-.43l3.14-9.12 3.22 8.81c.02.05.05.1.07.14-1.08.39-2.25.6-3.47.6zm1.44-15.37c.63-.03 1.2-.1 1.2-.1.56-.07.5-.9-.07-.86 0 0-1.69.13-2.79.13-1.03 0-2.76-.13-2.76-.13-.56-.03-.63.83-.07.86 0 0 .53.07 1.1.1l1.63 4.47-2.29 6.87-3.81-11.33c.63-.03 1.2-.1 1.2-.1.56-.07.5-.9-.07-.86 0 0-1.69.13-2.79.13-.2 0-.43 0-.67-.01 1.87-2.84 5.09-4.72 8.74-4.72 2.72 0 5.2 1.04 7.06 2.75-.05 0-.09-.01-.14-.01-1.03 0-1.76.9-1.76 1.86 0 .86.5 1.59 1.03 2.45.4.7.86 1.59.86 2.89 0 .9-.34 1.93-.8 3.38l-1.04 3.49-3.76-11.26zm7.74-.11c.82 1.49 1.28 3.2 1.28 5.02 0 3.86-2.09 7.23-5.2 9.04l3.2-9.24c.6-1.49.8-2.69.8-3.75-.01-.38-.03-.74-.08-1.07z" class="st14"/>
    <path d="M778.46 709.38c-6.42 0-11.64 5.22-11.64 11.64 0 6.42 5.22 11.64 11.64 11.64 6.42 0 11.64-5.22 11.64-11.64 0-6.42-5.22-11.64-11.64-11.64zM768 721.02c0-1.52.33-2.96.91-4.26l4.99 13.67c-3.49-1.69-5.9-5.27-5.9-9.41zm10.46 10.46c-1.03 0-2.02-.15-2.96-.43l3.14-9.12 3.22 8.81c.02.05.05.1.07.14-1.08.39-2.25.6-3.47.6zm1.45-15.37c.63-.03 1.2-.1 1.2-.1.56-.07.5-.9-.07-.86 0 0-1.69.13-2.79.13-1.03 0-2.76-.13-2.76-.13-.56-.03-.63.83-.07.86 0 0 .53.07 1.1.1l1.63 4.47-2.29 6.87-3.81-11.33c.63-.03 1.2-.1 1.2-.1.56-.07.5-.9-.07-.86 0 0-1.69.13-2.79.13-.2 0-.43 0-.67-.01 1.87-2.84 5.09-4.72 8.74-4.72 2.72 0 5.2 1.04 7.06 2.75-.05 0-.09-.01-.14-.01-1.03 0-1.76.9-1.76 1.86 0 .86.5 1.59 1.03 2.45.4.7.86 1.59.86 2.89 0 .9-.34 1.93-.8 3.38l-1.04 3.49-3.76-11.26zm7.73-.11c.82 1.49 1.28 3.2 1.28 5.02 0 3.86-2.09 7.23-5.2 9.04l3.2-9.24c.6-1.49.8-2.69.8-3.75-.01-.38-.03-.74-.08-1.07z" class="st1"/>
    <g>
      <path d="M400.01 852.52l-2.14.77-.76 2.13 2.84-.05zM402.57 855.79h-2.2l.01 2.2 1.63-.56zM395.43 859.46l-.97 2.06.97 2.05 1.98-2.05zM400.32 861.52l-.76-1.55-1.56 1.55 1.56 1.55zM401.02 860.79l1.11-.93-.13-1.44-1.54.75zM401.01 862.23l-.56 1.62 1.54.74.13-1.44zM403.75 867.16l1.62-.56-.93-1.11-1.43.13zM408.43 867.17l.75-1.54-1.44-.13-.93 1.1zM411.18 862.25l-1.11.92.13 1.44 1.54-.74zM411.19 860.81l.56-1.62-1.54-.75-.13 1.44zM408.45 855.88l-1.62.56.93 1.11 1.43-.13zM403.77 855.87l-.74 1.54 1.43.13.93-1.11zM399.04 856.44l-2.57 1.06 1.07 2.57 1.64-1.45zM399.16 864.36l-1.64-1.45-1.07 2.58 2.58 1.06zM403.21 868.43l-2.19.14 1.06 2.58 2.58-1.07zM408.95 868.45l-1.45 1.65 2.57 1.07 1.06-2.58zM413.16 866.6l2.57-1.07-1.07-2.57-1.64 1.45zM413.04 858.67l1.64 1.45 1.07-2.57-2.57-1.07zM408.99 854.6l2.19-.14-1.06-2.58-2.58 1.07zM403.25 854.58l1.45-1.65-2.57-1.07-1.06 2.58zM397.11 867.61l.76 2.14 2.14.76-.06-2.85zM400.37 867.24h2.2l-.56-1.63-1.63-.56zM404.05 872.19l2.05.96 2.05-.96-2.05-1.98zM406.1 867.3l-1.55.76 1.55 1.56 1.55-1.56zM412.19 870.51l2.14-.76.77-2.14-2.85.05zM411.82 865.05l-1.63.56-.56 1.63h2.2zM416.77 863.57l.97-2.05-.97-2.06-1.98 2.06zM411.88 861.52l.76 1.55 1.56-1.55-1.56-1.55zM412.19 852.52l.06 2.85 2.85.05-.77-2.13zM411.83 855.79h-2.2l.56 1.64 1.63.56zM408.15 850.85l-2.05-.97-2.05.97 2.05 1.97zM406.1 855.73l1.55-.76-1.55-1.55-1.55 1.55z" class="st1"/>
    </g>
    <path d="M271.75 808.92h-10.58c-3.5 0-6.35 2.85-6.35 6.35 0 3.5 2.85 6.35 6.35 6.35h10.58c3.5 0 6.35-2.85 6.35-6.35 0-3.5-2.85-6.35-6.35-6.35zm0 10.58h-10.58c-2.34 0-4.23-1.89-4.23-4.23 0-2.34 1.89-4.23 4.23-4.23h10.58c2.34 0 4.23 1.89 4.23 4.23 0 2.34-1.89 4.23-4.23 4.23zM258 815.27c0-1.76 1.42-3.17 3.17-3.17a3.171 3.171 0 1 1-3.17 3.17z" class="st13"/>
    <path d="M174.29 899.44h-7.72c-.5 0-1.63.3-1.63 1.78 0 1.47 1.1 1.63 1.42 1.63h2.59c.47 0 1.22.36 1.22 1.37s-.73 1.42-1.07 1.42h-6.05c-.33 0-1.32.36-1.32 1.68 0 1.32.97 1.73 1.42 1.73h5.18s1.27.1 1.27 1.32-.93 1.42-1.22 1.42h-1.47c-.22 0-1.37.41-1.37 1.63s1.1 1.73 1.42 1.73h7.37-1.73 7.37c.32 0 1.42-.51 1.42-1.73s-1.15-1.63-1.37-1.63h-1.47c-.28 0-1.22-.2-1.22-1.42s1.27-1.32 1.27-1.32h4.98c.46 0 1.42-.41 1.42-1.73s-1-1.68-1.32-1.68h-5.84c-.34 0-1.07-.41-1.07-1.42s.75-1.37 1.22-1.37h1.98c.32 0 1.42-.15 1.42-1.63 0-1.47-1.12-1.78-1.63-1.78h-7.11 1.64z" class="st5"/>
    <path d="M452.65 756.36c-6.43 0-11.64 5.21-11.64 11.64 0 6.43 5.21 11.64 11.64 11.64 6.43 0 11.64-5.21 11.64-11.64s-5.22-11.64-11.64-11.64zm0 23.27c0-6.43-5.21-11.64-11.64-11.64 6.43 0 11.64-5.21 11.64-11.64 0 6.43 5.21 11.64 11.64 11.64-6.43 0-11.64 5.21-11.64 11.64z" class="st2"/>
    <path d="M313.01 942.42c-6.4 0-11.64 5.24-11.64 11.64s5.24 11.64 11.64 11.64 11.64-5.24 11.64-11.64-5.24-11.64-11.64-11.64zm1.16 6.98h-2.33v3.49h-3.49v2.33h3.49v3.49h2.33v-3.49h3.49v-2.33h-3.49v-3.49zm-10.47 4.66c0 5.12 4.19 9.31 9.31 9.31s9.31-4.19 9.31-9.31-4.19-9.31-9.31-9.31-9.31 4.19-9.31 9.31z" class="st13"/>
    <g>
      <path d="M312.73 822.95v.16s.03.29.28.28c.25-.01.28-.29.28-.29v-1.16l-.56 1.01zm-.59-.5l-.17.32s-.12.27.11.38c.23.11.38-.11.38-.11l.65-1.18-.97.59zm1.35-.73v1.15l.1.17s.17.24.38.11c.22-.14.1-.39.1-.39l-.58-1.04zm1.15.32l-.92-.56-.11.07.45.8.29.18s.26.13.39-.09c.12-.24-.1-.4-.1-.4zM324.41 814.06l-13.04 7.97s-.24.18-.09.39c.14.21.39.09.39.09l12.98-7.92c0-.01-.08-.2-.24-.53zm-11.39 7.51c-.12 0-.22-.1-.22-.22s.1-.22.22-.22.22.1.22.22-.1.22-.22.22zM311.83 820.31l-3.55-2.17c-.12.14-.24.29-.35.44l4.35 2.66.05-.03-.5-.9zM312.53 820.01l-1.99-3.54c-.17.07-.34.16-.5.25l2.47 4.39.03-.02-.01-1.08zM313.29 815.96c-.09 0-.19-.01-.28-.01-.09 0-.19 0-.28.01v5l.56-1v-4M313.08 820.75l.97-.59 1.93-3.45c-.16-.09-.33-.17-.5-.25l-2.4 4.29z" class="st3"/>
      <path d="M313.01 807.15c-8.75 0-11.64 7.43-11.64 7.43l6.35 3.87a6.46 6.46 0 0 1 10.1-.6l6.46-3.94c-2.15-4.02-6.39-6.76-11.27-6.76zm0 8.03c-2.07 0-3.74-1.68-3.74-3.74s1.68-3.74 3.74-3.74a3.74 3.74 0 0 1 0 7.48z" class="st3"/>
    </g>
    <path d="M583.59 852.21v3.72h6.83v14.89h3.72v-14.89h6.83v-3.72h-17.38z" class="st4"/>
    <g>
      <path d="M452.65 954.06c-6.43 0-11.64 5.21-11.64 11.64h4.19c0-4.11 3.34-7.45 7.45-7.45s7.45 3.34 7.45 7.45h4.19c-.01-6.43-5.22-11.64-11.64-11.64zM452.65 954.06c6.43 0 11.64-5.21 11.64-11.64h-4.19c0 4.11-3.34 7.45-7.45 7.45s-7.45-3.34-7.45-7.45h-4.19c0 6.43 5.21 11.64 11.64 11.64z" class="st2"/>
    </g>
    <path d="M412.5 674.52l5.24 3.1-11.53 6.81-11.75-6.95 5.23-3.09-3.58-2.11 5.4-3.2-2.41-1.42 6.93-4.1 7.07 4.18-2.44 1.44 5.43 3.21z" class="st4"/>
    <path d="M359.55 570.67c-6.42 0-11.64 5.22-11.64 11.64 0 6.42 5.22 11.64 11.64 11.64 6.42 0 11.64-5.22 11.64-11.64 0-6.42-5.22-11.64-11.64-11.64zm-10.46 11.64c0-1.52.33-2.96.91-4.26l4.99 13.67c-3.49-1.69-5.9-5.27-5.9-9.41zm10.46 10.46c-1.03 0-2.02-.15-2.96-.43l3.14-9.12 3.22 8.81c.02.05.05.1.07.14-1.08.39-2.25.6-3.47.6zM361 577.4c.63-.03 1.2-.1 1.2-.1.56-.07.5-.9-.07-.86 0 0-1.69.13-2.79.13-1.03 0-2.76-.13-2.76-.13-.56-.03-.63.83-.07.86 0 0 .53.07 1.1.1l1.63 4.47-2.29 6.87-3.81-11.33c.63-.03 1.2-.1 1.2-.1.56-.07.5-.9-.07-.86 0 0-1.69.13-2.79.13-.2 0-.43 0-.67-.01 1.87-2.84 5.09-4.72 8.74-4.72 2.72 0 5.2 1.04 7.06 2.75-.05 0-.09-.01-.14-.01-1.03 0-1.76.9-1.76 1.86 0 .86.5 1.59 1.03 2.45.4.7.86 1.59.86 2.89 0 .9-.34 1.93-.8 3.38l-1.04 3.49L361 577.4zm7.74-.11c.82 1.49 1.28 3.2 1.28 5.02 0 3.86-2.09 7.23-5.2 9.04l3.2-9.24c.6-1.49.8-2.69.8-3.75a11.4 11.4 0 0 0-.08-1.07z" class="st1"/>
    <g id="_x31_nJjg2.tif_3_">
      <path d="M257 523.95c.23.37.61.72.63 1.1.01.29-.39.78-.69.85-.33.08-.88-.12-1.09-.39-.18-.24-.08-.74-.01-1.12.03-.17.28-.3.44-.44h.72zM276.91 523.95c.14.13.31.23.42.38.34.46.34.95-.07 1.36-.41.41-.91.41-1.36.05-.42-.33-.47-.99-.12-1.42.12-.14.28-.25.42-.38.23.01.47.01.71.01zM282.37 536.1c-2.31 1.21-4.12 3.25-5.41 5.95-.52-.28-1.06-.52-1.54-.85a9.525 9.525 0 0 1-3.11-3.44c-.82-1.53-1.78-2.92-3.57-3.64.86-.9 1.69-1.75 2.51-2.6 1.22-1.26 2.47-2.5 3.67-3.77.31-.32.59-.42.93-.18.6.43 1.27.81 1.74 1.36.66.78 1.19 1.68 1.74 2.55.66 1.03 1.26 2.1 1.92 3.13.33.51.74.98 1.12 1.49zm-6.77.86c1.37 0 2.46-1.09 2.46-2.46a2.46 2.46 0 1 0-4.92 0c0 1.37 1.09 2.46 2.46 2.46zM264.45 534.12c-1.77.73-2.73 2.12-3.56 3.64-.89 1.65-2.16 2.92-3.79 3.85-.27.15-.56.27-.86.41-1.26-2.64-3.08-4.71-5.69-6.08 1.58-1.11 2.32-2.79 3.26-4.34.67-1.1 1.47-2.12 2.23-3.16.14-.19.35-.33.54-.47 1.05-.75 1.21-.74 2.09.17 1.79 1.84 3.58 3.68 5.38 5.52.13.13.23.26.4.46zm-4.38.42c.01-1.38-1.06-2.49-2.42-2.51-1.35-.02-2.49 1.09-2.52 2.43-.02 1.35 1.08 2.48 2.44 2.5 1.39.01 2.48-1.05 2.5-2.42zM255.26 547.22c-.6-.29-.43-.54-.12-.85 1.84-1.83 3.66-3.68 5.49-5.51 4.76-4.79 9.52-9.57 14.28-14.36.23-.23.45-.67.89-.07-6.83 6.92-13.68 13.85-20.54 20.79zM267.11 535.66c3.85 3.76 7.6 7.42 11.34 11.07-.24.49-.46.56-.82.19-3.47-3.53-6.95-7.05-10.41-10.58-.12-.14-.08-.44-.11-.68zM266.51 534.46c-.32.33-.43.45-.41.43-2.96-2.84-5.84-5.61-8.73-8.38.03-.09.06-.19.09-.28.21.02.49-.03.62.08 2.78 2.67 5.55 5.36 8.43 8.15z" class="st1"/>
    </g>
    <g id="_x31_nJjg2.tif_2_">
      <path d="M582.82 943.53c.23.37.61.72.63 1.1.01.29-.39.78-.69.85-.33.08-.88-.12-1.09-.39-.18-.24-.08-.74-.01-1.12.03-.17.28-.3.44-.44h.72zM602.73 943.53c.14.13.31.23.42.38.34.46.34.95-.07 1.36-.41.41-.91.41-1.36.05-.42-.33-.47-.99-.12-1.42.12-.14.28-.25.42-.38.23.01.47.01.71.01zM608.19 955.68c-2.31 1.21-4.12 3.25-5.41 5.95-.52-.28-1.06-.52-1.54-.85a9.525 9.525 0 0 1-3.11-3.44c-.82-1.53-1.78-2.92-3.57-3.64.86-.9 1.69-1.75 2.51-2.61 1.22-1.26 2.47-2.5 3.67-3.77.31-.32.59-.42.93-.18.6.43 1.27.81 1.74 1.36.66.78 1.19 1.68 1.74 2.55.66 1.03 1.26 2.1 1.92 3.13.33.52.74.99 1.12 1.5zm-6.77.86c1.37 0 2.46-1.09 2.46-2.46a2.46 2.46 0 1 0-4.92 0 2.433 2.433 0 0 0 2.46 2.46zM590.27 953.7c-1.77.73-2.73 2.12-3.56 3.64-.89 1.65-2.16 2.92-3.79 3.85-.27.15-.56.27-.86.41-1.26-2.64-3.08-4.71-5.69-6.08 1.58-1.11 2.32-2.79 3.26-4.34.67-1.1 1.47-2.12 2.23-3.16.14-.19.35-.33.54-.47 1.05-.75 1.21-.74 2.09.17 1.79 1.84 3.58 3.68 5.38 5.52.13.13.23.26.4.46zm-4.38.42c.01-1.38-1.06-2.49-2.42-2.51-1.35-.02-2.49 1.09-2.52 2.43-.02 1.35 1.08 2.48 2.44 2.5 1.38.01 2.48-1.05 2.5-2.42zM581.08 966.8c-.6-.29-.43-.54-.12-.85 1.84-1.83 3.66-3.68 5.49-5.51 4.76-4.79 9.52-9.57 14.28-14.36.23-.23.45-.67.89-.07-6.84 6.92-13.68 13.85-20.54 20.79zM592.92 955.24c3.85 3.76 7.6 7.42 11.34 11.07-.24.49-.46.56-.82.19-3.47-3.53-6.95-7.05-10.41-10.58-.12-.14-.07-.44-.11-.68zM592.33 954.04c-.32.33-.43.45-.41.43-2.96-2.84-5.84-5.61-8.73-8.38.03-.09.06-.19.09-.28.21.02.49-.03.62.08 2.78 2.67 5.55 5.36 8.43 8.15z" class="st1"/>
    </g>
  </g>
</svg>
